<svg xmlns="http://www.w3.org/2000/svg" viewBox="0 0 768 768"><rect x="0" y="0" width="768" height="768" fill="#ece0c0"/><rect x="0" y="0" width="768" height="400" fill="#7ec8e3"/><rect x="0" y="372" width="768" height="28" fill="#dbead9" opacity="0.65"/><polygon points="289,400 479,400 768,748 0,748" fill="#a8a196"/><line x1="327.0" y1="400" x2="153.6" y2="748" stroke="#7a7468" stroke-width="2" opacity="0.4"/><line x1="365.0" y1="400" x2="307.2" y2="748" stroke="#7a7468" stroke-width="2" opacity="0.4"/><line x1="403.0" y1="400" x2="460.8" y2="748" stroke="#7a7468" stroke-width="2" opacity="0.4"/><line x1="441.0" y1="400" x2="614.4" y2="748" stroke="#7a7468" stroke-width="2" opacity="0.4"/><line x1="173.4" y1="539.2" x2="594.6" y2="539.2" stroke="#7a7468" stroke-width="2" opacity="0.4"/><line x1="86.7" y1="643.6" x2="681.3" y2="643.6" stroke="#7a7468" stroke-width="2" opacity="0.4"/><line x1="0" y1="400" x2="768" y2="400" stroke="#7a7468" stroke-width="3" opacity="0.55"/><line x1="70.0" y1="40" x2="250.0" y2="40" stroke="#5e3b1f" stroke-width="4"/><polygon points="70.0,40 100.0,40 85.0,66" fill="#8f2d2d" stroke="#2b1f14" stroke-width="2"/><polygon points="100.0,40 130.0,40 115.0,66" fill="#ece0c0" stroke="#2b1f14" stroke-width="2"/><polygon points="130.0,40 160.0,40 145.0,66" fill="#8f2d2d" stroke="#2b1f14" stroke-width="2"/><polygon points="160.0,40 190.0,40 175.0,66" fill="#ece0c0" stroke="#2b1f14" stroke-width="2"/><polygon points="190.0,40 220.0,40 205.0,66" fill="#8f2d2d" stroke="#2b1f14" stroke-width="2"/><polygon points="220.0,40 250.0,40 235.0,66" fill="#ece0c0" stroke="#2b1f14" stroke-width="2"/><line x1="510.0" y1="40" x2="690.0" y2="40" stroke="#5e3b1f" stroke-width="4"/><polygon points="510.0,40 540.0,40 525.0,66" fill="#8f2d2d" stroke="#2b1f14" stroke-width="2"/><polygon points="540.0,40 570.0,40 555.0,66" fill="#ece0c0" stroke="#2b1f14" stroke-width="2"/><polygon points="570.0,40 600.0,40 585.0,66" fill="#8f2d2d" stroke="#2b1f14" stroke-width="2"/><polygon points="600.0,40 630.0,40 615.0,66" fill="#ece0c0" stroke="#2b1f14" stroke-width="2"/><polygon points="630.0,40 660.0,40 645.0,66" fill="#8f2d2d" stroke="#2b1f14" stroke-width="2"/><polygon points="660.0,40 690.0,40 675.0,66" fill="#ece0c0" stroke="#2b1f14" stroke-width="2"/><rect x="380" y="600" width="90" height="80" fill="#8a5a34" stroke="#2b1f14" stroke-width="5"/><rect x="374" y="592" width="102" height="16" fill="#5e3b1f" stroke="#2b1f14" stroke-width="4"/><rect x="405" y="612" width="50" height="20" fill="#7a7468" opacity="0.7"/><polygon points="425,610 445,610 435,626" fill="#c98a2e" stroke="#2b1f14" stroke-width="2"/><circle cx="418" cy="608" r="4" fill="#2b1f14"/><circle cx="438" cy="608" r="4" fill="#2b1f14"/><g transform="translate(280,660) scale(0.85,0.85) rotate(0)"><line x1="0" y1="0" x2="-24" y2="92" stroke="#5e4223" stroke-width="32" stroke-linecap="round"/><line x1="4" y1="3" x2="-20" y2="95" stroke="#334927" stroke-width="13.4" stroke-linecap="round" opacity="0.55"/><ellipse cx="-24" cy="92" rx="15" ry="11" fill="#3a2a1a" stroke="#2b1f14" stroke-width="2"/><line x1="0" y1="0" x2="24" y2="92" stroke="#5e4223" stroke-width="32" stroke-linecap="round"/><line x1="4" y1="3" x2="28" y2="95" stroke="#334927" stroke-width="13.4" stroke-linecap="round" opacity="0.55"/><ellipse cx="24" cy="92" rx="15" ry="11" fill="#3a2a1a" stroke="#2b1f14" stroke-width="2"/><rect x="-26" y="-10" width="52" height="14" rx="3" fill="#334927" stroke="#2b1f14" stroke-width="2"/><line x1="0" y1="-82.0" x2="0" y2="0" stroke="#4c6a3a" stroke-width="50" stroke-linecap="round"/><line x1="4" y1="-79.0" x2="4" y2="3" stroke="#334927" stroke-width="21.0" stroke-linecap="round" opacity="0.55"/><line x1="0" y1="-80" x2="-45" y2="-10" stroke="#4c6a3a" stroke-width="24" stroke-linecap="round"/><line x1="4" y1="-77" x2="-41" y2="-7" stroke="#334927" stroke-width="10.1" stroke-linecap="round" opacity="0.55"/><circle cx="-45" cy="-10" r="12" fill="#dba06e" stroke="#2b1f14" stroke-width="2.5"/><line x1="0" y1="-80" x2="45" y2="-10" stroke="#4c6a3a" stroke-width="24" stroke-linecap="round"/><line x1="4" y1="-77" x2="49" y2="-7" stroke="#334927" stroke-width="10.1" stroke-linecap="round" opacity="0.55"/><circle cx="45" cy="-10" r="12" fill="#dba06e" stroke="#2b1f14" stroke-width="2.5"/><circle cx="0" cy="-138" r="36" fill="#dba06e" stroke="#2b1f14" stroke-width="6"/><ellipse cx="0" cy="-157.8" rx="35.28" ry="21.599999999999998" fill="#4a3320" stroke="#2b1f14" stroke-width="3"/><circle cx="-11.52" cy="-135.12" r="3.6" fill="#2b1f14"/><circle cx="11.52" cy="-135.12" r="3.6" fill="#2b1f14"/></g></svg>