<svg xmlns="http://www.w3.org/2000/svg" viewBox="0 0 768 768"><rect x="0" y="0" width="768" height="768" fill="#ece0c0"/><rect x="0" y="0" width="768" height="400" fill="#7ec8e3"/><rect x="0" y="372" width="768" height="28" fill="#dbead9" opacity="0.65"/><polygon points="289,400 479,400 768,748 0,748" fill="#5a9450"/><line x1="327.0" y1="400" x2="153.6" y2="748" stroke="#3c6b3a" stroke-width="2" opacity="0.4"/><line x1="365.0" y1="400" x2="307.2" y2="748" stroke="#3c6b3a" stroke-width="2" opacity="0.4"/><line x1="403.0" y1="400" x2="460.8" y2="748" stroke="#3c6b3a" stroke-width="2" opacity="0.4"/><line x1="441.0" y1="400" x2="614.4" y2="748" stroke="#3c6b3a" stroke-width="2" opacity="0.4"/><line x1="173.4" y1="539.2" x2="594.6" y2="539.2" stroke="#3c6b3a" stroke-width="2" opacity="0.4"/><line x1="86.7" y1="643.6" x2="681.3" y2="643.6" stroke="#3c6b3a" stroke-width="2" opacity="0.4"/><line x1="0" y1="400" x2="768" y2="400" stroke="#3c6b3a" stroke-width="3" opacity="0.55"/><path d="M 20.0,400 Q 85.0,330 150,330 Q 215.0,330 280.0,400 Z" fill="#3c6b3a" opacity="0.55"/><path d="M 470.0,400 Q 545.0,310 620,310 Q 695.0,310 770.0,400 Z" fill="#3c6b3a" opacity="0.55"/><g transform="translate(120,744) scale(1.1)"><rect x="-6" y="-16" width="12" height="20" fill="#5e3b1f"/><polygon points="-26,-14 26,-14 0,-48" fill="#5a9450" stroke="#2b1f14" stroke-width="2"/><polygon points="-21,-36 21,-36 0,-70" fill="#3c6b3a" stroke="#2b1f14" stroke-width="2"/><polygon points="-16,-58 16,-58 0,-92" fill="#5a9450" stroke="#2b1f14" stroke-width="2"/></g><g transform="translate(690,744) scale(0.9)"><rect x="-6" y="-16" width="12" height="20" fill="#5e3b1f"/><polygon points="-26,-14 26,-14 0,-48" fill="#5a9450" stroke="#2b1f14" stroke-width="2"/><polygon points="-21,-36 21,-36 0,-70" fill="#3c6b3a" stroke="#2b1f14" stroke-width="2"/><polygon points="-16,-58 16,-58 0,-92" fill="#5a9450" stroke="#2b1f14" stroke-width="2"/></g><g transform="translate(70,460) scale(0.55)"><rect x="-6" y="-16" width="12" height="20" fill="#5e3b1f"/><polygon points="-26,-14 26,-14 0,-48" fill="#5a9450" stroke="#2b1f14" stroke-width="2"/><polygon points="-21,-36 21,-36 0,-70" fill="#3c6b3a" stroke="#2b1f14" stroke-width="2"/><polygon points="-16,-58 16,-58 0,-92" fill="#5a9450" stroke="#2b1f14" stroke-width="2"/></g><g transform="translate(190,620) scale(1.0,1.0) rotate(0)"><line x1="0" y1="0" x2="-24" y2="92" stroke="#5e4223" stroke-width="32" stroke-linecap="round"/><line x1="4" y1="3" x2="-20" y2="95" stroke="#334927" stroke-width="13.4" stroke-linecap="round" opacity="0.55"/><ellipse cx="-24" cy="92" rx="15" ry="11" fill="#3a2a1a" stroke="#2b1f14" stroke-width="2"/><line x1="0" y1="0" x2="24" y2="92" stroke="#5e4223" stroke-width="32" stroke-linecap="round"/><line x1="4" y1="3" x2="28" y2="95" stroke="#334927" stroke-width="13.4" stroke-linecap="round" opacity="0.55"/><ellipse cx="24" cy="92" rx="15" ry="11" fill="#3a2a1a" stroke="#2b1f14" stroke-width="2"/><rect x="-26" y="-10" width="52" height="14" rx="3" fill="#334927" stroke="#2b1f14" stroke-width="2"/><line x1="0" y1="-82.0" x2="0" y2="0" stroke="#4c6a3a" stroke-width="50" stroke-linecap="round"/><line x1="4" y1="-79.0" x2="4" y2="3" stroke="#334927" stroke-width="21.0" stroke-linecap="round" opacity="0.55"/><line x1="0" y1="-80" x2="-14" y2="62" stroke="#4c6a3a" stroke-width="24" stroke-linecap="round"/><line x1="4" y1="-77" x2="-10" y2="65" stroke="#334927" stroke-width="10.1" stroke-linecap="round" opacity="0.55"/><circle cx="-14" cy="62" r="12" fill="#dba06e" stroke="#2b1f14" stroke-width="2.5"/><line x1="0" y1="-80" x2="78" y2="-6" stroke="#4c6a3a" stroke-width="24" stroke-linecap="round"/><line x1="4" y1="-77" x2="82" y2="-3" stroke="#334927" stroke-width="10.1" stroke-linecap="round" opacity="0.55"/><circle cx="78" cy="-6" r="12" fill="#dba06e" stroke="#2b1f14" stroke-width="2.5"/><circle cx="0" cy="-138" r="36" fill="#dba06e" stroke="#2b1f14" stroke-width="6"/><ellipse cx="0" cy="-157.8" rx="35.28" ry="21.599999999999998" fill="#4a3320" stroke="#2b1f14" stroke-width="3"/><circle cx="-11.52" cy="-135.12" r="3.6" fill="#2b1f14"/><circle cx="11.52" cy="-135.12" r="3.6" fill="#2b1f14"/></g><path d="M 60,-90 Q 100,0 60,90" fill="none" stroke="#2b1f14" stroke-width="5" transform="translate(190,620)"/><g transform="translate(500,300) scale(0.35)"><polygon points="0,-40 35,-20 35,20 0,40 -35,20 -35,-20" fill="#ece0c0" stroke="#2b1f14" stroke-width="6"/><polygon points="0,-40 35,-20 35,20 0,40" fill="#7a7468" opacity="0.28"/><line x1="0" y1="-40" x2="0" y2="40" stroke="#2b1f14" stroke-width="3"/><line x1="-35" y1="-20" x2="35" y2="20" stroke="#2b1f14" stroke-width="3"/><line x1="35" y1="-20" x2="-35" y2="20" stroke="#2b1f14" stroke-width="3"/></g><g transform="translate(570,390) scale(0.35)"><polygon points="0,-40 35,-20 35,20 0,40 -35,20 -35,-20" fill="#ece0c0" stroke="#2b1f14" stroke-width="6"/><polygon points="0,-40 35,-20 35,20 0,40" fill="#7a7468" opacity="0.28"/><line x1="0" y1="-40" x2="0" y2="40" stroke="#2b1f14" stroke-width="3"/><line x1="-35" y1="-20" x2="35" y2="20" stroke="#2b1f14" stroke-width="3"/><line x1="35" y1="-20" x2="-35" y2="20" stroke="#2b1f14" stroke-width="3"/></g><g transform="translate(640,300) scale(0.35)"><polygon points="0,-40 35,-20 35,20 0,40 -35,20 -35,-20" fill="#ece0c0" stroke="#2b1f14" stroke-width="6"/><polygon points="0,-40 35,-20 35,20 0,40" fill="#7a7468" opacity="0.28"/><line x1="0" y1="-40" x2="0" y2="40" stroke="#2b1f14" stroke-width="3"/><line x1="-35" y1="-20" x2="35" y2="20" stroke="#2b1f14" stroke-width="3"/><line x1="35" y1="-20" x2="-35" y2="20" stroke="#2b1f14" stroke-width="3"/></g><g transform="translate(710,390) scale(0.35)"><polygon points="0,-40 35,-20 35,20 0,40 -35,20 -35,-20" fill="#ece0c0" stroke="#2b1f14" stroke-width="6"/><polygon points="0,-40 35,-20 35,20 0,40" fill="#7a7468" opacity="0.28"/><line x1="0" y1="-40" x2="0" y2="40" stroke="#2b1f14" stroke-width="3"/><line x1="-35" y1="-20" x2="35" y2="20" stroke="#2b1f14" stroke-width="3"/><line x1="35" y1="-20" x2="-35" y2="20" stroke="#2b1f14" stroke-width="3"/></g><g transform="scale(1.0)"><line x1="260" y1="560" x2="480" y2="320" stroke="#2b1f14" stroke-width="5" stroke-linecap="round"/><g transform="translate(480,320) rotate(-47.48955292199916)"><line x1="0" y1="0" x2="-16" y2="-9" stroke="#2b1f14" stroke-width="5" stroke-linecap="round"/><line x1="0" y1="0" x2="-16" y2="9" stroke="#2b1f14" stroke-width="5" stroke-linecap="round"/></g></g><g transform="scale(1.0)"><line x1="260" y1="530" x2="550" y2="410" stroke="#2b1f14" stroke-width="5" stroke-linecap="round"/><g transform="translate(550,410) rotate(-22.479434397103113)"><line x1="0" y1="0" x2="-16" y2="-9" stroke="#2b1f14" stroke-width="5" stroke-linecap="round"/><line x1="0" y1="0" x2="-16" y2="9" stroke="#2b1f14" stroke-width="5" stroke-linecap="round"/></g></g><g transform="scale(1.0)"><line x1="260" y1="500" x2="620" y2="320" stroke="#2b1f14" stroke-width="5" stroke-linecap="round"/><g transform="translate(620,320) rotate(-26.56505117707799)"><line x1="0" y1="0" x2="-16" y2="-9" stroke="#2b1f14" stroke-width="5" stroke-linecap="round"/><line x1="0" y1="0" x2="-16" y2="9" stroke="#2b1f14" stroke-width="5" stroke-linecap="round"/></g></g><g transform="scale(1.0)"><line x1="260" y1="470" x2="690" y2="410" stroke="#2b1f14" stroke-width="5" stroke-linecap="round"/><g transform="translate(690,410) rotate(-7.943471810590411)"><line x1="0" y1="0" x2="-16" y2="-9" stroke="#2b1f14" stroke-width="5" stroke-linecap="round"/><line x1="0" y1="0" x2="-16" y2="9" stroke="#2b1f14" stroke-width="5" stroke-linecap="round"/></g></g><g transform="scale(1.0)"><line x1="560" y1="260" x2="300" y2="480" stroke="#c98a2e" stroke-width="5" stroke-linecap="round"/><g transform="translate(300,480) rotate(139.7636416907262)"><line x1="0" y1="0" x2="-16" y2="-9" stroke="#c98a2e" stroke-width="5" stroke-linecap="round"/><line x1="0" y1="0" x2="-16" y2="9" stroke="#c98a2e" stroke-width="5" stroke-linecap="round"/></g></g><g transform="translate(560,220) scale(0.7) rotate(0)"><rect x="-30" y="-16" width="60" height="32" rx="6" fill="#2b1f14" stroke="#2b1f14" stroke-width="4"/><circle cx="-20" cy="0" r="4" fill="#ece0c0" stroke="#2b1f14" stroke-width="2"/><text x="4" y="8" text-anchor="middle" font-family="'Trebuchet MS', 'Arial Black', sans-serif" font-size="18" font-weight="bold" fill="#ece0c0" transform="rotate(0 4 8)">NO</text></g></svg>