<svg xmlns="http://www.w3.org/2000/svg" viewBox="0 0 768 768"><rect x="0" y="0" width="768" height="768" fill="#f6ecd9"/><g transform="translate(300,560) scale(1.0,1.0) rotate(0)"><circle cx="0" cy="-129" r="30" fill="#f6ecd9" stroke="#241d15" stroke-width="7"/><line x1="0" y1="-77.0" x2="0" y2="0" stroke="#241d15" stroke-width="7" stroke-linecap="round"/><line x1="0" y1="-77" x2="20" y2="5" stroke="#241d15" stroke-width="7" stroke-linecap="round"/><line x1="0" y1="-77" x2="-20" y2="5" stroke="#241d15" stroke-width="7" stroke-linecap="round"/><line x1="0" y1="0" x2="-24" y2="92" stroke="#241d15" stroke-width="7" stroke-linecap="round"/><line x1="0" y1="0" x2="24" y2="92" stroke="#241d15" stroke-width="7" stroke-linecap="round"/></g><g transform="translate(300,610)"><rect x="-130.0" y="0" width="260" height="6" fill="#241d15"/><line x1="-120.0" y1="6" x2="-120.0" y2="56" stroke="#241d15" stroke-width="6" stroke-linecap="round"/><line x1="120.0" y1="6" x2="120.0" y2="56" stroke="#241d15" stroke-width="6" stroke-linecap="round"/></g><g transform="translate(500,610) scale(0.55,0.55) rotate(0)"><circle cx="0" cy="-129" r="30" fill="#f6ecd9" stroke="#241d15" stroke-width="7"/><line x1="0" y1="-77.0" x2="0" y2="0" stroke="#241d15" stroke-width="7" stroke-linecap="round"/><line x1="0" y1="-77" x2="-16" y2="68" stroke="#241d15" stroke-width="7" stroke-linecap="round"/><line x1="0" y1="-77" x2="16" y2="68" stroke="#241d15" stroke-width="7" stroke-linecap="round"/><line x1="0" y1="0" x2="-24" y2="92" stroke="#241d15" stroke-width="7" stroke-linecap="round"/><line x1="0" y1="0" x2="24" y2="92" stroke="#241d15" stroke-width="7" stroke-linecap="round"/></g><g transform="translate(555,610) scale(0.55,0.55) rotate(0)"><circle cx="0" cy="-129" r="30" fill="#f6ecd9" stroke="#241d15" stroke-width="7"/><line x1="0" y1="-77.0" x2="0" y2="0" stroke="#241d15" stroke-width="7" stroke-linecap="round"/><line x1="0" y1="-77" x2="-16" y2="68" stroke="#241d15" stroke-width="7" stroke-linecap="round"/><line x1="0" y1="-77" x2="16" y2="68" stroke="#241d15" stroke-width="7" stroke-linecap="round"/><line x1="0" y1="0" x2="-24" y2="92" stroke="#241d15" stroke-width="7" stroke-linecap="round"/><line x1="0" y1="0" x2="24" y2="92" stroke="#241d15" stroke-width="7" stroke-linecap="round"/></g><g transform="translate(610,610) scale(0.55,0.55) rotate(0)"><circle cx="0" cy="-129" r="30" fill="#f6ecd9" stroke="#241d15" stroke-width="7"/><line x1="0" y1="-77.0" x2="0" y2="0" stroke="#241d15" stroke-width="7" stroke-linecap="round"/><line x1="0" y1="-77" x2="-16" y2="68" stroke="#241d15" stroke-width="7" stroke-linecap="round"/><line x1="0" y1="-77" x2="16" y2="68" stroke="#241d15" stroke-width="7" stroke-linecap="round"/><line x1="0" y1="0" x2="-24" y2="92" stroke="#241d15" stroke-width="7" stroke-linecap="round"/><line x1="0" y1="0" x2="24" y2="92" stroke="#241d15" stroke-width="7" stroke-linecap="round"/></g><g transform="translate(665,610) scale(0.55,0.55) rotate(0)"><circle cx="0" cy="-129" r="30" fill="#f6ecd9" stroke="#241d15" stroke-width="7"/><line x1="0" y1="-77.0" x2="0" y2="0" stroke="#241d15" stroke-width="7" stroke-linecap="round"/><line x1="0" y1="-77" x2="-16" y2="68" stroke="#241d15" stroke-width="7" stroke-linecap="round"/><line x1="0" y1="-77" x2="16" y2="68" stroke="#241d15" stroke-width="7" stroke-linecap="round"/><line x1="0" y1="0" x2="-24" y2="92" stroke="#241d15" stroke-width="7" stroke-linecap="round"/><line x1="0" y1="0" x2="24" y2="92" stroke="#241d15" stroke-width="7" stroke-linecap="round"/></g></svg>