<svg xmlns="http://www.w3.org/2000/svg" viewBox="0 0 768 768"><rect x="0" y="0" width="768" height="768" fill="#ece0c0"/><rect x="0" y="0" width="768" height="400" fill="#87837a"/><polygon points="289,400 479,400 768,748 0,748" fill="#a8a196"/><line x1="327.0" y1="400" x2="153.6" y2="748" stroke="#7a7468" stroke-width="2" opacity="0.4"/><line x1="365.0" y1="400" x2="307.2" y2="748" stroke="#7a7468" stroke-width="2" opacity="0.4"/><line x1="403.0" y1="400" x2="460.8" y2="748" stroke="#7a7468" stroke-width="2" opacity="0.4"/><line x1="441.0" y1="400" x2="614.4" y2="748" stroke="#7a7468" stroke-width="2" opacity="0.4"/><line x1="173.4" y1="539.2" x2="594.6" y2="539.2" stroke="#7a7468" stroke-width="2" opacity="0.4"/><line x1="86.7" y1="643.6" x2="681.3" y2="643.6" stroke="#7a7468" stroke-width="2" opacity="0.4"/><line x1="0" y1="400" x2="768" y2="400" stroke="#7a7468" stroke-width="3" opacity="0.55"/><path d="M 65.0,280 L 65.0,60 Q 65.0,-50.0 110,-50.0 Q 155.0,-50.0 155.0,60 L 155.0,280" fill="none" stroke="#87837a" stroke-width="10" opacity="0.7"/><path d="M 613.0,280 L 613.0,60 Q 613.0,-50.0 658,-50.0 Q 703.0,-50.0 703.0,60 L 703.0,280" fill="none" stroke="#87837a" stroke-width="10" opacity="0.7"/><g transform="translate(210,620) scale(1.0,1.0) rotate(0)"><line x1="0" y1="0" x2="-24" y2="92" stroke="#6b6e73" stroke-width="32" stroke-linecap="round"/><line x1="4" y1="3" x2="-20" y2="95" stroke="#2b4d7a" stroke-width="13.4" stroke-linecap="round" opacity="0.55"/><ellipse cx="-24" cy="92" rx="15" ry="11" fill="#3a2a1a" stroke="#2b1f14" stroke-width="2"/><line x1="0" y1="0" x2="24" y2="92" stroke="#6b6e73" stroke-width="32" stroke-linecap="round"/><line x1="4" y1="3" x2="28" y2="95" stroke="#2b4d7a" stroke-width="13.4" stroke-linecap="round" opacity="0.55"/><ellipse cx="24" cy="92" rx="15" ry="11" fill="#3a2a1a" stroke="#2b1f14" stroke-width="2"/><rect x="-26" y="-10" width="52" height="14" rx="3" fill="#2b4d7a" stroke="#2b1f14" stroke-width="2"/><line x1="0" y1="-82.0" x2="0" y2="0" stroke="#3f6fae" stroke-width="50" stroke-linecap="round"/><line x1="4" y1="-79.0" x2="4" y2="3" stroke="#2b4d7a" stroke-width="21.0" stroke-linecap="round" opacity="0.55"/><line x1="0" y1="-80" x2="38" y2="-12" stroke="#3f6fae" stroke-width="24" stroke-linecap="round"/><line x1="4" y1="-77" x2="42" y2="-9" stroke="#2b4d7a" stroke-width="10.1" stroke-linecap="round" opacity="0.55"/><circle cx="38" cy="-12" r="12" fill="#e0ac7c" stroke="#2b1f14" stroke-width="2.5"/><line x1="0" y1="-80" x2="52" y2="6" stroke="#3f6fae" stroke-width="24" stroke-linecap="round"/><line x1="4" y1="-77" x2="56" y2="9" stroke="#2b4d7a" stroke-width="10.1" stroke-linecap="round" opacity="0.55"/><circle cx="52" cy="6" r="12" fill="#e0ac7c" stroke="#2b1f14" stroke-width="2.5"/><circle cx="0" cy="-138" r="36" fill="#e0ac7c" stroke="#2b1f14" stroke-width="6"/><ellipse cx="0" cy="-157.8" rx="35.28" ry="21.599999999999998" fill="#3a2a1a" stroke="#2b1f14" stroke-width="3"/><circle cx="-11.52" cy="-135.12" r="3.6" fill="#2b1f14"/><circle cx="11.52" cy="-135.12" r="3.6" fill="#2b1f14"/></g><g transform="translate(340,590) rotate(0) scale(0.75)"><circle cx="-42" cy="0" r="10" fill="#8a5a34" stroke="#2b1f14" stroke-width="5"/><circle cx="42" cy="0" r="10" fill="#8a5a34" stroke="#2b1f14" stroke-width="5"/><rect x="-42" y="-10" width="84" height="20" rx="10" fill="#ece0c0" stroke="#2b1f14" stroke-width="5"/><rect x="-4" y="-12" width="8" height="24" fill="#c98a2e"/></g><g transform="translate(340,520) scale(1.0)"><polyline points="-20,0 -4.0,16.0 20,-16.0" fill="none" stroke="#c98a2e" stroke-width="7" stroke-linecap="round" stroke-linejoin="round"/></g><g transform="translate(560,620) scale(1.0,1.0) rotate(0)"><line x1="0" y1="0" x2="-24" y2="92" stroke="#6b6e73" stroke-width="32" stroke-linecap="round"/><line x1="4" y1="3" x2="-20" y2="95" stroke="#2b4d7a" stroke-width="13.4" stroke-linecap="round" opacity="0.55"/><ellipse cx="-24" cy="92" rx="15" ry="11" fill="#3a2a1a" stroke="#2b1f14" stroke-width="2"/><line x1="0" y1="0" x2="24" y2="92" stroke="#6b6e73" stroke-width="32" stroke-linecap="round"/><line x1="4" y1="3" x2="28" y2="95" stroke="#2b4d7a" stroke-width="13.4" stroke-linecap="round" opacity="0.55"/><ellipse cx="24" cy="92" rx="15" ry="11" fill="#3a2a1a" stroke="#2b1f14" stroke-width="2"/><rect x="-26" y="-10" width="52" height="14" rx="3" fill="#2b4d7a" stroke="#2b1f14" stroke-width="2"/><line x1="0" y1="-82.0" x2="0" y2="0" stroke="#3f6fae" stroke-width="50" stroke-linecap="round"/><line x1="4" y1="-79.0" x2="4" y2="3" stroke="#2b4d7a" stroke-width="21.0" stroke-linecap="round" opacity="0.55"/><line x1="0" y1="-80" x2="-45" y2="-10" stroke="#3f6fae" stroke-width="24" stroke-linecap="round"/><line x1="4" y1="-77" x2="-41" y2="-7" stroke="#2b4d7a" stroke-width="10.1" stroke-linecap="round" opacity="0.55"/><circle cx="-45" cy="-10" r="12" fill="#e0ac7c" stroke="#2b1f14" stroke-width="2.5"/><line x1="0" y1="-80" x2="45" y2="-10" stroke="#3f6fae" stroke-width="24" stroke-linecap="round"/><line x1="4" y1="-77" x2="49" y2="-7" stroke="#2b4d7a" stroke-width="10.1" stroke-linecap="round" opacity="0.55"/><circle cx="45" cy="-10" r="12" fill="#e0ac7c" stroke="#2b1f14" stroke-width="2.5"/><circle cx="0" cy="-138" r="36" fill="#e0ac7c" stroke="#2b1f14" stroke-width="6"/><ellipse cx="0" cy="-157.8" rx="35.28" ry="21.599999999999998" fill="#3a2a1a" stroke="#2b1f14" stroke-width="3"/><circle cx="-11.52" cy="-135.12" r="3.6" fill="#2b1f14"/><circle cx="11.52" cy="-135.12" r="3.6" fill="#2b1f14"/></g><g transform="translate(650,560) rotate(-14) scale(0.55)"><circle cx="-42" cy="0" r="10" fill="#8a5a34" stroke="#2b1f14" stroke-width="5"/><circle cx="42" cy="0" r="10" fill="#8a5a34" stroke="#2b1f14" stroke-width="5"/><rect x="-42" y="-10" width="84" height="20" rx="10" fill="#ece0c0" stroke="#2b1f14" stroke-width="5"/><rect x="-4" y="-12" width="8" height="24" fill="#c98a2e"/></g><g transform="translate(660,590) rotate(0) scale(0.55)"><circle cx="-42" cy="0" r="10" fill="#8a5a34" stroke="#2b1f14" stroke-width="5"/><circle cx="42" cy="0" r="10" fill="#8a5a34" stroke="#2b1f14" stroke-width="5"/><rect x="-42" y="-10" width="84" height="20" rx="10" fill="#ece0c0" stroke="#2b1f14" stroke-width="5"/><rect x="-4" y="-12" width="8" height="24" fill="#c98a2e"/></g><g transform="translate(650,620) rotate(14) scale(0.55)"><circle cx="-42" cy="0" r="10" fill="#8a5a34" stroke="#2b1f14" stroke-width="5"/><circle cx="42" cy="0" r="10" fill="#8a5a34" stroke="#2b1f14" stroke-width="5"/><rect x="-42" y="-10" width="84" height="20" rx="10" fill="#ece0c0" stroke="#2b1f14" stroke-width="5"/><rect x="-4" y="-12" width="8" height="24" fill="#c98a2e"/></g><text x="560" y="480" text-anchor="middle" font-family="'Trebuchet MS', 'Arial Black', sans-serif" font-size="30" font-weight="bold" fill="#2b1f14" transform="rotate(0 560 480)">?</text></svg>