<svg xmlns="http://www.w3.org/2000/svg" viewBox="0 0 768 768"><rect x="0" y="0" width="768" height="768" fill="#ece0c0"/><rect x="0" y="0" width="768" height="400" fill="#7ec8e3"/><rect x="0" y="372" width="768" height="28" fill="#dbead9" opacity="0.65"/><polygon points="289,400 479,400 768,748 0,748" fill="#5a9450"/><line x1="327.0" y1="400" x2="153.6" y2="748" stroke="#3c6b3a" stroke-width="2" opacity="0.4"/><line x1="365.0" y1="400" x2="307.2" y2="748" stroke="#3c6b3a" stroke-width="2" opacity="0.4"/><line x1="403.0" y1="400" x2="460.8" y2="748" stroke="#3c6b3a" stroke-width="2" opacity="0.4"/><line x1="441.0" y1="400" x2="614.4" y2="748" stroke="#3c6b3a" stroke-width="2" opacity="0.4"/><line x1="173.4" y1="539.2" x2="594.6" y2="539.2" stroke="#3c6b3a" stroke-width="2" opacity="0.4"/><line x1="86.7" y1="643.6" x2="681.3" y2="643.6" stroke="#3c6b3a" stroke-width="2" opacity="0.4"/><line x1="0" y1="400" x2="768" y2="400" stroke="#3c6b3a" stroke-width="3" opacity="0.55"/><path d="M 20.0,400 Q 85.0,330 150,330 Q 215.0,330 280.0,400 Z" fill="#3c6b3a" opacity="0.55"/><path d="M 470.0,400 Q 545.0,310 620,310 Q 695.0,310 770.0,400 Z" fill="#3c6b3a" opacity="0.55"/><g transform="translate(120,744) scale(1.1)"><rect x="-6" y="-16" width="12" height="20" fill="#5e3b1f"/><polygon points="-26,-14 26,-14 0,-48" fill="#5a9450" stroke="#2b1f14" stroke-width="2"/><polygon points="-21,-36 21,-36 0,-70" fill="#3c6b3a" stroke="#2b1f14" stroke-width="2"/><polygon points="-16,-58 16,-58 0,-92" fill="#5a9450" stroke="#2b1f14" stroke-width="2"/></g><g transform="translate(690,744) scale(0.9)"><rect x="-6" y="-16" width="12" height="20" fill="#5e3b1f"/><polygon points="-26,-14 26,-14 0,-48" fill="#5a9450" stroke="#2b1f14" stroke-width="2"/><polygon points="-21,-36 21,-36 0,-70" fill="#3c6b3a" stroke="#2b1f14" stroke-width="2"/><polygon points="-16,-58 16,-58 0,-92" fill="#5a9450" stroke="#2b1f14" stroke-width="2"/></g><g transform="translate(70,460) scale(0.55)"><rect x="-6" y="-16" width="12" height="20" fill="#5e3b1f"/><polygon points="-26,-14 26,-14 0,-48" fill="#5a9450" stroke="#2b1f14" stroke-width="2"/><polygon points="-21,-36 21,-36 0,-70" fill="#3c6b3a" stroke="#2b1f14" stroke-width="2"/><polygon points="-16,-58 16,-58 0,-92" fill="#5a9450" stroke="#2b1f14" stroke-width="2"/></g><g transform="translate(500,580) scale(0.6)"><rect x="-70" y="-30" width="140" height="90" fill="#a8a196" stroke="#2b1f14" stroke-width="6"/><rect x="0" y="-30" width="70" height="90" fill="#7a7468" opacity="0.35"/><rect x="-70" y="-50" width="14" height="22" fill="#a8a196" stroke="#2b1f14" stroke-width="5"/><rect x="-50" y="-50" width="14" height="22" fill="#a8a196" stroke="#2b1f14" stroke-width="5"/><rect x="-30" y="-50" width="14" height="22" fill="#a8a196" stroke="#2b1f14" stroke-width="5"/><rect x="-10" y="-50" width="14" height="22" fill="#a8a196" stroke="#2b1f14" stroke-width="5"/><rect x="10" y="-50" width="14" height="22" fill="#a8a196" stroke="#2b1f14" stroke-width="5"/><rect x="30" y="-50" width="14" height="22" fill="#a8a196" stroke="#2b1f14" stroke-width="5"/><rect x="50" y="-50" width="14" height="22" fill="#a8a196" stroke="#2b1f14" stroke-width="5"/><rect x="70" y="-50" width="14" height="22" fill="#a8a196" stroke="#2b1f14" stroke-width="5"/><rect x="-20" y="-90" width="40" height="60" fill="#a8a196" stroke="#2b1f14" stroke-width="6"/><polygon points="-24,-90 24,-90 0,-130" fill="#8f2d2d" stroke="#2b1f14" stroke-width="5" stroke-linejoin="round"/><rect x="-14" y="20" width="28" height="40" rx="12" fill="#5e3b1f"/></g><rect x="580" y="500" width="140" height="180" fill="#8f2d2d" opacity="0.85"/><g transform="translate(600,660) scale(0.32,0.32) rotate(0)"><line x1="0" y1="0" x2="-30" y2="40" stroke="#6b6e73" stroke-width="32" stroke-linecap="round"/><line x1="4" y1="3" x2="-26" y2="43" stroke="#5f6266" stroke-width="13.4" stroke-linecap="round" opacity="0.55"/><ellipse cx="-30" cy="40" rx="15" ry="11" fill="#4a3320" stroke="#2b1f14" stroke-width="2"/><line x1="0" y1="0" x2="30" y2="40" stroke="#6b6e73" stroke-width="32" stroke-linecap="round"/><line x1="4" y1="3" x2="34" y2="43" stroke="#5f6266" stroke-width="13.4" stroke-linecap="round" opacity="0.55"/><ellipse cx="30" cy="40" rx="15" ry="11" fill="#4a3320" stroke="#2b1f14" stroke-width="2"/><rect x="-26" y="-10" width="52" height="14" rx="3" fill="#5f6266" stroke="#2b1f14" stroke-width="2"/><line x1="0" y1="-82.0" x2="0" y2="0" stroke="#8b8e94" stroke-width="50" stroke-linecap="round"/><line x1="4" y1="-79.0" x2="4" y2="3" stroke="#5f6266" stroke-width="21.0" stroke-linecap="round" opacity="0.55"/><line x1="0" y1="-80" x2="-16" y2="68" stroke="#8b8e94" stroke-width="24" stroke-linecap="round"/><line x1="4" y1="-77" x2="-12" y2="71" stroke="#5f6266" stroke-width="10.1" stroke-linecap="round" opacity="0.55"/><circle cx="-16" cy="68" r="12" fill="#e0ac7c" stroke="#2b1f14" stroke-width="2.5"/><line x1="0" y1="-80" x2="16" y2="68" stroke="#8b8e94" stroke-width="24" stroke-linecap="round"/><line x1="4" y1="-77" x2="20" y2="71" stroke="#5f6266" stroke-width="10.1" stroke-linecap="round" opacity="0.55"/><circle cx="16" cy="68" r="12" fill="#e0ac7c" stroke="#2b1f14" stroke-width="2.5"/><circle cx="0" cy="-138" r="36" fill="#e0ac7c" stroke="#2b1f14" stroke-width="6"/><ellipse cx="0" cy="-157.8" rx="35.28" ry="21.599999999999998" fill="#5a3a22" stroke="#2b1f14" stroke-width="3"/><circle cx="-11.52" cy="-135.12" r="3.6" fill="#2b1f14"/><circle cx="11.52" cy="-135.12" r="3.6" fill="#2b1f14"/></g><g transform="translate(640,660) scale(0.32,0.32) rotate(0)"><line x1="0" y1="0" x2="-30" y2="40" stroke="#6b6e73" stroke-width="32" stroke-linecap="round"/><line x1="4" y1="3" x2="-26" y2="43" stroke="#5f6266" stroke-width="13.4" stroke-linecap="round" opacity="0.55"/><ellipse cx="-30" cy="40" rx="15" ry="11" fill="#4a3320" stroke="#2b1f14" stroke-width="2"/><line x1="0" y1="0" x2="30" y2="40" stroke="#6b6e73" stroke-width="32" stroke-linecap="round"/><line x1="4" y1="3" x2="34" y2="43" stroke="#5f6266" stroke-width="13.4" stroke-linecap="round" opacity="0.55"/><ellipse cx="30" cy="40" rx="15" ry="11" fill="#4a3320" stroke="#2b1f14" stroke-width="2"/><rect x="-26" y="-10" width="52" height="14" rx="3" fill="#5f6266" stroke="#2b1f14" stroke-width="2"/><line x1="0" y1="-82.0" x2="0" y2="0" stroke="#8b8e94" stroke-width="50" stroke-linecap="round"/><line x1="4" y1="-79.0" x2="4" y2="3" stroke="#5f6266" stroke-width="21.0" stroke-linecap="round" opacity="0.55"/><line x1="0" y1="-80" x2="-16" y2="68" stroke="#8b8e94" stroke-width="24" stroke-linecap="round"/><line x1="4" y1="-77" x2="-12" y2="71" stroke="#5f6266" stroke-width="10.1" stroke-linecap="round" opacity="0.55"/><circle cx="-16" cy="68" r="12" fill="#e0ac7c" stroke="#2b1f14" stroke-width="2.5"/><line x1="0" y1="-80" x2="16" y2="68" stroke="#8b8e94" stroke-width="24" stroke-linecap="round"/><line x1="4" y1="-77" x2="20" y2="71" stroke="#5f6266" stroke-width="10.1" stroke-linecap="round" opacity="0.55"/><circle cx="16" cy="68" r="12" fill="#e0ac7c" stroke="#2b1f14" stroke-width="2.5"/><circle cx="0" cy="-138" r="36" fill="#e0ac7c" stroke="#2b1f14" stroke-width="6"/><ellipse cx="0" cy="-157.8" rx="35.28" ry="21.599999999999998" fill="#5a3a22" stroke="#2b1f14" stroke-width="3"/><circle cx="-11.52" cy="-135.12" r="3.6" fill="#2b1f14"/><circle cx="11.52" cy="-135.12" r="3.6" fill="#2b1f14"/></g><g transform="translate(680,660) scale(0.32,0.32) rotate(0)"><line x1="0" y1="0" x2="-30" y2="40" stroke="#6b6e73" stroke-width="32" stroke-linecap="round"/><line x1="4" y1="3" x2="-26" y2="43" stroke="#5f6266" stroke-width="13.4" stroke-linecap="round" opacity="0.55"/><ellipse cx="-30" cy="40" rx="15" ry="11" fill="#4a3320" stroke="#2b1f14" stroke-width="2"/><line x1="0" y1="0" x2="30" y2="40" stroke="#6b6e73" stroke-width="32" stroke-linecap="round"/><line x1="4" y1="3" x2="34" y2="43" stroke="#5f6266" stroke-width="13.4" stroke-linecap="round" opacity="0.55"/><ellipse cx="30" cy="40" rx="15" ry="11" fill="#4a3320" stroke="#2b1f14" stroke-width="2"/><rect x="-26" y="-10" width="52" height="14" rx="3" fill="#5f6266" stroke="#2b1f14" stroke-width="2"/><line x1="0" y1="-82.0" x2="0" y2="0" stroke="#8b8e94" stroke-width="50" stroke-linecap="round"/><line x1="4" y1="-79.0" x2="4" y2="3" stroke="#5f6266" stroke-width="21.0" stroke-linecap="round" opacity="0.55"/><line x1="0" y1="-80" x2="-16" y2="68" stroke="#8b8e94" stroke-width="24" stroke-linecap="round"/><line x1="4" y1="-77" x2="-12" y2="71" stroke="#5f6266" stroke-width="10.1" stroke-linecap="round" opacity="0.55"/><circle cx="-16" cy="68" r="12" fill="#e0ac7c" stroke="#2b1f14" stroke-width="2.5"/><line x1="0" y1="-80" x2="16" y2="68" stroke="#8b8e94" stroke-width="24" stroke-linecap="round"/><line x1="4" y1="-77" x2="20" y2="71" stroke="#5f6266" stroke-width="10.1" stroke-linecap="round" opacity="0.55"/><circle cx="16" cy="68" r="12" fill="#e0ac7c" stroke="#2b1f14" stroke-width="2.5"/><circle cx="0" cy="-138" r="36" fill="#e0ac7c" stroke="#2b1f14" stroke-width="6"/><ellipse cx="0" cy="-157.8" rx="35.28" ry="21.599999999999998" fill="#5a3a22" stroke="#2b1f14" stroke-width="3"/><circle cx="-11.52" cy="-135.12" r="3.6" fill="#2b1f14"/><circle cx="11.52" cy="-135.12" r="3.6" fill="#2b1f14"/></g><g transform="translate(600,640) scale(0.32,0.32) rotate(0)"><line x1="0" y1="0" x2="-30" y2="40" stroke="#6b6e73" stroke-width="32" stroke-linecap="round"/><line x1="4" y1="3" x2="-26" y2="43" stroke="#5f6266" stroke-width="13.4" stroke-linecap="round" opacity="0.55"/><ellipse cx="-30" cy="40" rx="15" ry="11" fill="#4a3320" stroke="#2b1f14" stroke-width="2"/><line x1="0" y1="0" x2="30" y2="40" stroke="#6b6e73" stroke-width="32" stroke-linecap="round"/><line x1="4" y1="3" x2="34" y2="43" stroke="#5f6266" stroke-width="13.4" stroke-linecap="round" opacity="0.55"/><ellipse cx="30" cy="40" rx="15" ry="11" fill="#4a3320" stroke="#2b1f14" stroke-width="2"/><rect x="-26" y="-10" width="52" height="14" rx="3" fill="#5f6266" stroke="#2b1f14" stroke-width="2"/><line x1="0" y1="-82.0" x2="0" y2="0" stroke="#8b8e94" stroke-width="50" stroke-linecap="round"/><line x1="4" y1="-79.0" x2="4" y2="3" stroke="#5f6266" stroke-width="21.0" stroke-linecap="round" opacity="0.55"/><line x1="0" y1="-80" x2="-16" y2="68" stroke="#8b8e94" stroke-width="24" stroke-linecap="round"/><line x1="4" y1="-77" x2="-12" y2="71" stroke="#5f6266" stroke-width="10.1" stroke-linecap="round" opacity="0.55"/><circle cx="-16" cy="68" r="12" fill="#e0ac7c" stroke="#2b1f14" stroke-width="2.5"/><line x1="0" y1="-80" x2="16" y2="68" stroke="#8b8e94" stroke-width="24" stroke-linecap="round"/><line x1="4" y1="-77" x2="20" y2="71" stroke="#5f6266" stroke-width="10.1" stroke-linecap="round" opacity="0.55"/><circle cx="16" cy="68" r="12" fill="#e0ac7c" stroke="#2b1f14" stroke-width="2.5"/><circle cx="0" cy="-138" r="36" fill="#e0ac7c" stroke="#2b1f14" stroke-width="6"/><ellipse cx="0" cy="-157.8" rx="35.28" ry="21.599999999999998" fill="#5a3a22" stroke="#2b1f14" stroke-width="3"/><circle cx="-11.52" cy="-135.12" r="3.6" fill="#2b1f14"/><circle cx="11.52" cy="-135.12" r="3.6" fill="#2b1f14"/></g><g transform="translate(640,640) scale(0.32,0.32) rotate(0)"><line x1="0" y1="0" x2="-30" y2="40" stroke="#6b6e73" stroke-width="32" stroke-linecap="round"/><line x1="4" y1="3" x2="-26" y2="43" stroke="#5f6266" stroke-width="13.4" stroke-linecap="round" opacity="0.55"/><ellipse cx="-30" cy="40" rx="15" ry="11" fill="#4a3320" stroke="#2b1f14" stroke-width="2"/><line x1="0" y1="0" x2="30" y2="40" stroke="#6b6e73" stroke-width="32" stroke-linecap="round"/><line x1="4" y1="3" x2="34" y2="43" stroke="#5f6266" stroke-width="13.4" stroke-linecap="round" opacity="0.55"/><ellipse cx="30" cy="40" rx="15" ry="11" fill="#4a3320" stroke="#2b1f14" stroke-width="2"/><rect x="-26" y="-10" width="52" height="14" rx="3" fill="#5f6266" stroke="#2b1f14" stroke-width="2"/><line x1="0" y1="-82.0" x2="0" y2="0" stroke="#8b8e94" stroke-width="50" stroke-linecap="round"/><line x1="4" y1="-79.0" x2="4" y2="3" stroke="#5f6266" stroke-width="21.0" stroke-linecap="round" opacity="0.55"/><line x1="0" y1="-80" x2="-16" y2="68" stroke="#8b8e94" stroke-width="24" stroke-linecap="round"/><line x1="4" y1="-77" x2="-12" y2="71" stroke="#5f6266" stroke-width="10.1" stroke-linecap="round" opacity="0.55"/><circle cx="-16" cy="68" r="12" fill="#e0ac7c" stroke="#2b1f14" stroke-width="2.5"/><line x1="0" y1="-80" x2="16" y2="68" stroke="#8b8e94" stroke-width="24" stroke-linecap="round"/><line x1="4" y1="-77" x2="20" y2="71" stroke="#5f6266" stroke-width="10.1" stroke-linecap="round" opacity="0.55"/><circle cx="16" cy="68" r="12" fill="#e0ac7c" stroke="#2b1f14" stroke-width="2.5"/><circle cx="0" cy="-138" r="36" fill="#e0ac7c" stroke="#2b1f14" stroke-width="6"/><ellipse cx="0" cy="-157.8" rx="35.28" ry="21.599999999999998" fill="#5a3a22" stroke="#2b1f14" stroke-width="3"/><circle cx="-11.52" cy="-135.12" r="3.6" fill="#2b1f14"/><circle cx="11.52" cy="-135.12" r="3.6" fill="#2b1f14"/></g><g transform="translate(680,640) scale(0.32,0.32) rotate(0)"><line x1="0" y1="0" x2="-30" y2="40" stroke="#6b6e73" stroke-width="32" stroke-linecap="round"/><line x1="4" y1="3" x2="-26" y2="43" stroke="#5f6266" stroke-width="13.4" stroke-linecap="round" opacity="0.55"/><ellipse cx="-30" cy="40" rx="15" ry="11" fill="#4a3320" stroke="#2b1f14" stroke-width="2"/><line x1="0" y1="0" x2="30" y2="40" stroke="#6b6e73" stroke-width="32" stroke-linecap="round"/><line x1="4" y1="3" x2="34" y2="43" stroke="#5f6266" stroke-width="13.4" stroke-linecap="round" opacity="0.55"/><ellipse cx="30" cy="40" rx="15" ry="11" fill="#4a3320" stroke="#2b1f14" stroke-width="2"/><rect x="-26" y="-10" width="52" height="14" rx="3" fill="#5f6266" stroke="#2b1f14" stroke-width="2"/><line x1="0" y1="-82.0" x2="0" y2="0" stroke="#8b8e94" stroke-width="50" stroke-linecap="round"/><line x1="4" y1="-79.0" x2="4" y2="3" stroke="#5f6266" stroke-width="21.0" stroke-linecap="round" opacity="0.55"/><line x1="0" y1="-80" x2="-16" y2="68" stroke="#8b8e94" stroke-width="24" stroke-linecap="round"/><line x1="4" y1="-77" x2="-12" y2="71" stroke="#5f6266" stroke-width="10.1" stroke-linecap="round" opacity="0.55"/><circle cx="-16" cy="68" r="12" fill="#e0ac7c" stroke="#2b1f14" stroke-width="2.5"/><line x1="0" y1="-80" x2="16" y2="68" stroke="#8b8e94" stroke-width="24" stroke-linecap="round"/><line x1="4" y1="-77" x2="20" y2="71" stroke="#5f6266" stroke-width="10.1" stroke-linecap="round" opacity="0.55"/><circle cx="16" cy="68" r="12" fill="#e0ac7c" stroke="#2b1f14" stroke-width="2.5"/><circle cx="0" cy="-138" r="36" fill="#e0ac7c" stroke="#2b1f14" stroke-width="6"/><ellipse cx="0" cy="-157.8" rx="35.28" ry="21.599999999999998" fill="#5a3a22" stroke="#2b1f14" stroke-width="3"/><circle cx="-11.52" cy="-135.12" r="3.6" fill="#2b1f14"/><circle cx="11.52" cy="-135.12" r="3.6" fill="#2b1f14"/></g><g transform="translate(300,600) scale(1.1)"><rect x="-38" y="-40" width="76" height="90" rx="8" fill="#a8a196" stroke="#2b1f14" stroke-width="6"/><rect x="-26" y="-92" width="52" height="46" rx="6" fill="#a8a196" stroke="#2b1f14" stroke-width="6"/><circle cx="-10" cy="-70" r="4" fill="#2b1f14"/><circle cx="10" cy="-70" r="4" fill="#2b1f14"/><path d="M -12,-56 Q 0,-48 12,-56" fill="none" stroke="#2b1f14" stroke-width="3"/><circle cx="-38" cy="-10" r="5" fill="#c98a2e"/><circle cx="38" cy="-10" r="5" fill="#c98a2e"/><line x1="-38" y1="-10" x2="-60" y2="20" stroke="#7a7468" stroke-width="8" stroke-linecap="round"/><line x1="38" y1="-10" x2="60" y2="20" stroke="#7a7468" stroke-width="8" stroke-linecap="round"/><line x1="-16" y1="50" x2="-22" y2="90" stroke="#7a7468" stroke-width="9" stroke-linecap="round"/><line x1="16" y1="50" x2="22" y2="90" stroke="#7a7468" stroke-width="9" stroke-linecap="round"/></g></svg>