<svg xmlns="http://www.w3.org/2000/svg" viewBox="0 0 768 768"><rect x="0" y="0" width="768" height="768" fill="#ece0c0"/><rect x="0" y="0" width="768" height="400" fill="#7ec8e3"/><rect x="0" y="372" width="768" height="28" fill="#dbead9" opacity="0.65"/><polygon points="289,400 479,400 768,748 0,748" fill="#5a9450"/><line x1="327.0" y1="400" x2="153.6" y2="748" stroke="#3c6b3a" stroke-width="2" opacity="0.4"/><line x1="365.0" y1="400" x2="307.2" y2="748" stroke="#3c6b3a" stroke-width="2" opacity="0.4"/><line x1="403.0" y1="400" x2="460.8" y2="748" stroke="#3c6b3a" stroke-width="2" opacity="0.4"/><line x1="441.0" y1="400" x2="614.4" y2="748" stroke="#3c6b3a" stroke-width="2" opacity="0.4"/><line x1="173.4" y1="539.2" x2="594.6" y2="539.2" stroke="#3c6b3a" stroke-width="2" opacity="0.4"/><line x1="86.7" y1="643.6" x2="681.3" y2="643.6" stroke="#3c6b3a" stroke-width="2" opacity="0.4"/><line x1="0" y1="400" x2="768" y2="400" stroke="#3c6b3a" stroke-width="3" opacity="0.55"/><path d="M 20.0,400 Q 85.0,330 150,330 Q 215.0,330 280.0,400 Z" fill="#3c6b3a" opacity="0.55"/><path d="M 470.0,400 Q 545.0,310 620,310 Q 695.0,310 770.0,400 Z" fill="#3c6b3a" opacity="0.55"/><g transform="translate(120,744) scale(1.1)"><rect x="-6" y="-16" width="12" height="20" fill="#5e3b1f"/><polygon points="-26,-14 26,-14 0,-48" fill="#5a9450" stroke="#2b1f14" stroke-width="2"/><polygon points="-21,-36 21,-36 0,-70" fill="#3c6b3a" stroke="#2b1f14" stroke-width="2"/><polygon points="-16,-58 16,-58 0,-92" fill="#5a9450" stroke="#2b1f14" stroke-width="2"/></g><g transform="translate(690,744) scale(0.9)"><rect x="-6" y="-16" width="12" height="20" fill="#5e3b1f"/><polygon points="-26,-14 26,-14 0,-48" fill="#5a9450" stroke="#2b1f14" stroke-width="2"/><polygon points="-21,-36 21,-36 0,-70" fill="#3c6b3a" stroke="#2b1f14" stroke-width="2"/><polygon points="-16,-58 16,-58 0,-92" fill="#5a9450" stroke="#2b1f14" stroke-width="2"/></g><g transform="translate(70,460) scale(0.55)"><rect x="-6" y="-16" width="12" height="20" fill="#5e3b1f"/><polygon points="-26,-14 26,-14 0,-48" fill="#5a9450" stroke="#2b1f14" stroke-width="2"/><polygon points="-21,-36 21,-36 0,-70" fill="#3c6b3a" stroke="#2b1f14" stroke-width="2"/><polygon points="-16,-58 16,-58 0,-92" fill="#5a9450" stroke="#2b1f14" stroke-width="2"/></g><g transform="translate(230,640) scale(1.0)"><line x1="-45.0" y1="12.600000000000001" x2="-45.0" y2="62.6" stroke="#5e3b1f" stroke-width="6" stroke-linecap="round"/><line x1="45.0" y1="12.600000000000001" x2="45.0" y2="62.6" stroke="#5e3b1f" stroke-width="6" stroke-linecap="round"/><ellipse cx="0" cy="0" rx="90" ry="32.4" fill="#8a5a34" stroke="#2b1f14" stroke-width="6"/></g><g transform="translate(230,610) scale(0.6,0.6) rotate(0)"><line x1="0" y1="0" x2="-24" y2="92" stroke="#4a3269" stroke-width="32" stroke-linecap="round"/><line x1="4" y1="3" x2="-20" y2="95" stroke="#4a3269" stroke-width="13.4" stroke-linecap="round" opacity="0.55"/><ellipse cx="-24" cy="92" rx="15" ry="11" fill="#3a2a1a" stroke="#2b1f14" stroke-width="2"/><line x1="0" y1="0" x2="24" y2="92" stroke="#4a3269" stroke-width="32" stroke-linecap="round"/><line x1="4" y1="3" x2="28" y2="95" stroke="#4a3269" stroke-width="13.4" stroke-linecap="round" opacity="0.55"/><ellipse cx="24" cy="92" rx="15" ry="11" fill="#3a2a1a" stroke="#2b1f14" stroke-width="2"/><rect x="-26" y="-10" width="52" height="14" rx="3" fill="#4a3269" stroke="#2b1f14" stroke-width="2"/><line x1="0" y1="-82.0" x2="0" y2="0" stroke="#6b4c9a" stroke-width="50" stroke-linecap="round"/><line x1="4" y1="-79.0" x2="4" y2="3" stroke="#4a3269" stroke-width="21.0" stroke-linecap="round" opacity="0.55"/><line x1="0" y1="-80" x2="-55" y2="-55" stroke="#6b4c9a" stroke-width="24" stroke-linecap="round"/><line x1="4" y1="-77" x2="-51" y2="-52" stroke="#4a3269" stroke-width="10.1" stroke-linecap="round" opacity="0.55"/><circle cx="-55" cy="-55" r="12" fill="#e0ac7c" stroke="#2b1f14" stroke-width="2.5"/><line x1="0" y1="-80" x2="55" y2="-55" stroke="#6b4c9a" stroke-width="24" stroke-linecap="round"/><line x1="4" y1="-77" x2="59" y2="-52" stroke="#4a3269" stroke-width="10.1" stroke-linecap="round" opacity="0.55"/><circle cx="55" cy="-55" r="12" fill="#e0ac7c" stroke="#2b1f14" stroke-width="2.5"/><circle cx="0" cy="-138" r="36" fill="#e0ac7c" stroke="#2b1f14" stroke-width="6"/><ellipse cx="0" cy="-157.8" rx="35.28" ry="21.599999999999998" fill="#b9b9b9" stroke="#2b1f14" stroke-width="3"/><circle cx="-11.52" cy="-135.12" r="3.6" fill="#2b1f14"/><circle cx="11.52" cy="-135.12" r="3.6" fill="#2b1f14"/></g><g transform="translate(300,630) scale(0.6,0.6) rotate(0)"><line x1="0" y1="0" x2="-24" y2="92" stroke="#6b6e73" stroke-width="32" stroke-linecap="round"/><line x1="4" y1="3" x2="-20" y2="95" stroke="#5f6266" stroke-width="13.4" stroke-linecap="round" opacity="0.55"/><ellipse cx="-24" cy="92" rx="15" ry="11" fill="#4a3320" stroke="#2b1f14" stroke-width="2"/><line x1="0" y1="0" x2="24" y2="92" stroke="#6b6e73" stroke-width="32" stroke-linecap="round"/><line x1="4" y1="3" x2="28" y2="95" stroke="#5f6266" stroke-width="13.4" stroke-linecap="round" opacity="0.55"/><ellipse cx="24" cy="92" rx="15" ry="11" fill="#4a3320" stroke="#2b1f14" stroke-width="2"/><rect x="-26" y="-10" width="52" height="14" rx="3" fill="#5f6266" stroke="#2b1f14" stroke-width="2"/><line x1="0" y1="-82.0" x2="0" y2="0" stroke="#8b8e94" stroke-width="50" stroke-linecap="round"/><line x1="4" y1="-79.0" x2="4" y2="3" stroke="#5f6266" stroke-width="21.0" stroke-linecap="round" opacity="0.55"/><line x1="0" y1="-80" x2="20" y2="5" stroke="#8b8e94" stroke-width="24" stroke-linecap="round"/><line x1="4" y1="-77" x2="24" y2="8" stroke="#5f6266" stroke-width="10.1" stroke-linecap="round" opacity="0.55"/><circle cx="20" cy="5" r="12" fill="#e0ac7c" stroke="#2b1f14" stroke-width="2.5"/><line x1="0" y1="-80" x2="-20" y2="5" stroke="#8b8e94" stroke-width="24" stroke-linecap="round"/><line x1="4" y1="-77" x2="-16" y2="8" stroke="#5f6266" stroke-width="10.1" stroke-linecap="round" opacity="0.55"/><circle cx="-20" cy="5" r="12" fill="#e0ac7c" stroke="#2b1f14" stroke-width="2.5"/><circle cx="0" cy="-138" r="36" fill="#e0ac7c" stroke="#2b1f14" stroke-width="6"/><ellipse cx="0" cy="-157.8" rx="35.28" ry="21.599999999999998" fill="#5a3a22" stroke="#2b1f14" stroke-width="3"/><circle cx="-11.52" cy="-135.12" r="3.6" fill="#2b1f14"/><circle cx="11.52" cy="-135.12" r="3.6" fill="#2b1f14"/></g><g transform="translate(600,600) scale(0.9)"><rect x="-40" y="-70" width="14" height="140" fill="#7a7468"/><rect x="26" y="-70" width="14" height="140" fill="#7a7468"/><rect x="-46" y="-82" width="92" height="16" fill="#7a7468"/></g><circle cx="520.0" cy="560" r="3" fill="#f0e6c8" opacity="0.85"/><circle cx="540.0" cy="540" r="3" fill="#f0e6c8" opacity="0.85"/><circle cx="560.0" cy="520" r="3" fill="#f0e6c8" opacity="0.85"/><circle cx="580.0" cy="560" r="3" fill="#f0e6c8" opacity="0.85"/><circle cx="600.0" cy="540" r="3" fill="#f0e6c8" opacity="0.85"/><circle cx="620.0" cy="520" r="3" fill="#f0e6c8" opacity="0.85"/><circle cx="640.0" cy="560" r="3" fill="#f0e6c8" opacity="0.85"/><circle cx="660.0" cy="540" r="3" fill="#f0e6c8" opacity="0.85"/><g transform="translate(600,660) scale(0.6,0.6) rotate(0)"><line x1="0" y1="0" x2="-24" y2="92" stroke="#6b6e73" stroke-width="32" stroke-linecap="round"/><line x1="4" y1="3" x2="-20" y2="95" stroke="#5f6266" stroke-width="13.4" stroke-linecap="round" opacity="0.55"/><ellipse cx="-24" cy="92" rx="15" ry="11" fill="#4a3320" stroke="#2b1f14" stroke-width="2"/><line x1="0" y1="0" x2="24" y2="92" stroke="#6b6e73" stroke-width="32" stroke-linecap="round"/><line x1="4" y1="3" x2="28" y2="95" stroke="#5f6266" stroke-width="13.4" stroke-linecap="round" opacity="0.55"/><ellipse cx="24" cy="92" rx="15" ry="11" fill="#4a3320" stroke="#2b1f14" stroke-width="2"/><rect x="-26" y="-10" width="52" height="14" rx="3" fill="#5f6266" stroke="#2b1f14" stroke-width="2"/><line x1="0" y1="-82.0" x2="0" y2="0" stroke="#8b8e94" stroke-width="50" stroke-linecap="round"/><line x1="4" y1="-79.0" x2="4" y2="3" stroke="#5f6266" stroke-width="21.0" stroke-linecap="round" opacity="0.55"/><line x1="0" y1="-80" x2="-16" y2="68" stroke="#8b8e94" stroke-width="24" stroke-linecap="round"/><line x1="4" y1="-77" x2="-12" y2="71" stroke="#5f6266" stroke-width="10.1" stroke-linecap="round" opacity="0.55"/><circle cx="-16" cy="68" r="12" fill="#e0ac7c" stroke="#2b1f14" stroke-width="2.5"/><line x1="0" y1="-80" x2="16" y2="68" stroke="#8b8e94" stroke-width="24" stroke-linecap="round"/><line x1="4" y1="-77" x2="20" y2="71" stroke="#5f6266" stroke-width="10.1" stroke-linecap="round" opacity="0.55"/><circle cx="16" cy="68" r="12" fill="#e0ac7c" stroke="#2b1f14" stroke-width="2.5"/><circle cx="0" cy="-138" r="36" fill="#e0ac7c" stroke="#2b1f14" stroke-width="6"/><ellipse cx="0" cy="-157.8" rx="35.28" ry="21.599999999999998" fill="#5a3a22" stroke="#2b1f14" stroke-width="3"/><circle cx="-11.52" cy="-135.12" r="3.6" fill="#2b1f14"/><circle cx="11.52" cy="-135.12" r="3.6" fill="#2b1f14"/></g></svg>