<svg xmlns="http://www.w3.org/2000/svg" viewBox="0 0 768 768"><rect x="0" y="0" width="768" height="768" fill="#ece0c0"/><rect x="0" y="0" width="768" height="400" fill="#6b4527"/><polygon points="289,400 479,400 768,748 0,748" fill="#8a5a34"/><line x1="327.0" y1="400" x2="153.6" y2="748" stroke="#5e3b1f" stroke-width="2" opacity="0.4"/><line x1="365.0" y1="400" x2="307.2" y2="748" stroke="#5e3b1f" stroke-width="2" opacity="0.4"/><line x1="403.0" y1="400" x2="460.8" y2="748" stroke="#5e3b1f" stroke-width="2" opacity="0.4"/><line x1="441.0" y1="400" x2="614.4" y2="748" stroke="#5e3b1f" stroke-width="2" opacity="0.4"/><line x1="173.4" y1="539.2" x2="594.6" y2="539.2" stroke="#5e3b1f" stroke-width="2" opacity="0.4"/><line x1="86.7" y1="643.6" x2="681.3" y2="643.6" stroke="#5e3b1f" stroke-width="2" opacity="0.4"/><line x1="0" y1="400" x2="768" y2="400" stroke="#5e3b1f" stroke-width="3" opacity="0.55"/><line x1="20" y1="112.00000000000001" x2="748" y2="112.00000000000001" stroke="#5e3b1f" stroke-width="14" opacity="0.7"/><line x1="140" y1="112.00000000000001" x2="140" y2="412.0" stroke="#5e3b1f" stroke-width="10" opacity="0.4"/><line x1="384" y1="112.00000000000001" x2="384" y2="412.0" stroke="#5e3b1f" stroke-width="10" opacity="0.4"/><line x1="630" y1="112.00000000000001" x2="630" y2="412.0" stroke="#5e3b1f" stroke-width="10" opacity="0.4"/><g transform="translate(400,600) rotate(0) scale(1.2)"><circle cx="-42" cy="0" r="10" fill="#8a5a34" stroke="#2b1f14" stroke-width="5"/><circle cx="42" cy="0" r="10" fill="#8a5a34" stroke="#2b1f14" stroke-width="5"/><rect x="-42" y="-10" width="84" height="20" rx="10" fill="#ece0c0" stroke="#2b1f14" stroke-width="5"/><rect x="-4" y="-12" width="8" height="24" fill="#c98a2e"/></g><g transform="translate(400,500) scale(1.0)"><polyline points="-26,0 -5.2,20.8 26,-20.8" fill="none" stroke="#c98a2e" stroke-width="7" stroke-linecap="round" stroke-linejoin="round"/></g><g transform="translate(580,640) scale(0.9)"><path d="M -30,10 Q -34,50 0,54 Q 34,50 30,10 Q 30,-14 0,-14 Q -30,-14 -30,10 Z" fill="#e8b563" stroke="#2b1f14" stroke-width="6" stroke-linejoin="round"/><path d="M -14,-14 Q 0,-30 14,-14" fill="none" stroke="#5e3b1f" stroke-width="6" stroke-linecap="round"/><circle cx="0" cy="-16" r="6" fill="#5e3b1f"/></g><g transform="translate(580,560) scale(1.0)"><line x1="-24" y1="-24" x2="24" y2="24" stroke="#2b1f14" stroke-width="6" stroke-linecap="round"/><line x1="24" y1="-24" x2="-24" y2="24" stroke="#2b1f14" stroke-width="6" stroke-linecap="round"/></g><g transform="translate(230,690) scale(0.7,0.7) rotate(0)"><line x1="0" y1="0" x2="-24" y2="92" stroke="#6b6e73" stroke-width="32" stroke-linecap="round"/><line x1="4" y1="3" x2="-20" y2="95" stroke="#2b4d7a" stroke-width="13.4" stroke-linecap="round" opacity="0.55"/><ellipse cx="-24" cy="92" rx="15" ry="11" fill="#3a2a1a" stroke="#2b1f14" stroke-width="2"/><line x1="0" y1="0" x2="24" y2="92" stroke="#6b6e73" stroke-width="32" stroke-linecap="round"/><line x1="4" y1="3" x2="28" y2="95" stroke="#2b4d7a" stroke-width="13.4" stroke-linecap="round" opacity="0.55"/><ellipse cx="24" cy="92" rx="15" ry="11" fill="#3a2a1a" stroke="#2b1f14" stroke-width="2"/><rect x="-26" y="-10" width="52" height="14" rx="3" fill="#2b4d7a" stroke="#2b1f14" stroke-width="2"/><line x1="0" y1="-82.0" x2="0" y2="0" stroke="#3f6fae" stroke-width="50" stroke-linecap="round"/><line x1="4" y1="-79.0" x2="4" y2="3" stroke="#2b4d7a" stroke-width="21.0" stroke-linecap="round" opacity="0.55"/><line x1="0" y1="-80" x2="20" y2="5" stroke="#3f6fae" stroke-width="24" stroke-linecap="round"/><line x1="4" y1="-77" x2="24" y2="8" stroke="#2b4d7a" stroke-width="10.1" stroke-linecap="round" opacity="0.55"/><circle cx="20" cy="5" r="12" fill="#e0ac7c" stroke="#2b1f14" stroke-width="2.5"/><line x1="0" y1="-80" x2="-20" y2="5" stroke="#3f6fae" stroke-width="24" stroke-linecap="round"/><line x1="4" y1="-77" x2="-16" y2="8" stroke="#2b4d7a" stroke-width="10.1" stroke-linecap="round" opacity="0.55"/><circle cx="-20" cy="5" r="12" fill="#e0ac7c" stroke="#2b1f14" stroke-width="2.5"/><circle cx="0" cy="-138" r="36" fill="#e0ac7c" stroke="#2b1f14" stroke-width="6"/><ellipse cx="0" cy="-157.8" rx="35.28" ry="21.599999999999998" fill="#3a2a1a" stroke="#2b1f14" stroke-width="3"/><circle cx="-11.52" cy="-135.12" r="3.6" fill="#2b1f14"/><circle cx="11.52" cy="-135.12" r="3.6" fill="#2b1f14"/></g></svg>