<svg xmlns="http://www.w3.org/2000/svg" viewBox="0 0 768 768"><rect x="0" y="0" width="768" height="768" fill="#ece0c0"/><rect x="0" y="0" width="768" height="400" fill="#87837a"/><polygon points="289,400 479,400 768,748 0,748" fill="#a8a196"/><line x1="327.0" y1="400" x2="153.6" y2="748" stroke="#7a7468" stroke-width="2" opacity="0.4"/><line x1="365.0" y1="400" x2="307.2" y2="748" stroke="#7a7468" stroke-width="2" opacity="0.4"/><line x1="403.0" y1="400" x2="460.8" y2="748" stroke="#7a7468" stroke-width="2" opacity="0.4"/><line x1="441.0" y1="400" x2="614.4" y2="748" stroke="#7a7468" stroke-width="2" opacity="0.4"/><line x1="173.4" y1="539.2" x2="594.6" y2="539.2" stroke="#7a7468" stroke-width="2" opacity="0.4"/><line x1="86.7" y1="643.6" x2="681.3" y2="643.6" stroke="#7a7468" stroke-width="2" opacity="0.4"/><line x1="0" y1="400" x2="768" y2="400" stroke="#7a7468" stroke-width="3" opacity="0.55"/><path d="M 65.0,280 L 65.0,60 Q 65.0,-50.0 110,-50.0 Q 155.0,-50.0 155.0,60 L 155.0,280" fill="none" stroke="#87837a" stroke-width="10" opacity="0.7"/><path d="M 613.0,280 L 613.0,60 Q 613.0,-50.0 658,-50.0 Q 703.0,-50.0 703.0,60 L 703.0,280" fill="none" stroke="#87837a" stroke-width="10" opacity="0.7"/><g transform="translate(400,620) scale(1.0)"><line x1="-70.0" y1="19.6" x2="-70.0" y2="69.6" stroke="#5e3b1f" stroke-width="6" stroke-linecap="round"/><line x1="70.0" y1="19.6" x2="70.0" y2="69.6" stroke="#5e3b1f" stroke-width="6" stroke-linecap="round"/><ellipse cx="0" cy="0" rx="140" ry="50.4" fill="#8a5a34" stroke="#2b1f14" stroke-width="6"/></g><g transform="translate(259.04610688211375,604.6090935503449) scale(0.45,0.45) rotate(0)"><line x1="0" y1="0" x2="-30" y2="40" stroke="#6b6e73" stroke-width="32" stroke-linecap="round"/><line x1="4" y1="3" x2="-26" y2="43" stroke="#5f6266" stroke-width="13.4" stroke-linecap="round" opacity="0.55"/><ellipse cx="-30" cy="40" rx="15" ry="11" fill="#4a3320" stroke="#2b1f14" stroke-width="2"/><line x1="0" y1="0" x2="30" y2="40" stroke="#6b6e73" stroke-width="32" stroke-linecap="round"/><line x1="4" y1="3" x2="34" y2="43" stroke="#5f6266" stroke-width="13.4" stroke-linecap="round" opacity="0.55"/><ellipse cx="30" cy="40" rx="15" ry="11" fill="#4a3320" stroke="#2b1f14" stroke-width="2"/><rect x="-26" y="-10" width="52" height="14" rx="3" fill="#5f6266" stroke="#2b1f14" stroke-width="2"/><line x1="0" y1="-82.0" x2="0" y2="0" stroke="#8b8e94" stroke-width="50" stroke-linecap="round"/><line x1="4" y1="-79.0" x2="4" y2="3" stroke="#5f6266" stroke-width="21.0" stroke-linecap="round" opacity="0.55"/><line x1="0" y1="-80" x2="-16" y2="68" stroke="#8b8e94" stroke-width="24" stroke-linecap="round"/><line x1="4" y1="-77" x2="-12" y2="71" stroke="#5f6266" stroke-width="10.1" stroke-linecap="round" opacity="0.55"/><circle cx="-16" cy="68" r="12" fill="#e0ac7c" stroke="#2b1f14" stroke-width="2.5"/><line x1="0" y1="-80" x2="16" y2="68" stroke="#8b8e94" stroke-width="24" stroke-linecap="round"/><line x1="4" y1="-77" x2="20" y2="71" stroke="#5f6266" stroke-width="10.1" stroke-linecap="round" opacity="0.55"/><circle cx="16" cy="68" r="12" fill="#e0ac7c" stroke="#2b1f14" stroke-width="2.5"/><circle cx="0" cy="-138" r="36" fill="#e0ac7c" stroke="#2b1f14" stroke-width="6"/><ellipse cx="0" cy="-157.8" rx="35.28" ry="21.599999999999998" fill="#5a3a22" stroke="#2b1f14" stroke-width="3"/><circle cx="-11.52" cy="-135.12" r="3.6" fill="#2b1f14"/><circle cx="11.52" cy="-135.12" r="3.6" fill="#2b1f14"/></g><g transform="translate(348.6969785011497,577.7138320646341) scale(0.45,0.45) rotate(0)"><line x1="0" y1="0" x2="-30" y2="40" stroke="#5e3b1f" stroke-width="32" stroke-linecap="round"/><line x1="4" y1="3" x2="-26" y2="43" stroke="#7a3220" stroke-width="13.4" stroke-linecap="round" opacity="0.55"/><ellipse cx="-30" cy="40" rx="15" ry="11" fill="#3a2a1a" stroke="#2b1f14" stroke-width="2"/><line x1="0" y1="0" x2="30" y2="40" stroke="#5e3b1f" stroke-width="32" stroke-linecap="round"/><line x1="4" y1="3" x2="34" y2="43" stroke="#7a3220" stroke-width="13.4" stroke-linecap="round" opacity="0.55"/><ellipse cx="30" cy="40" rx="15" ry="11" fill="#3a2a1a" stroke="#2b1f14" stroke-width="2"/><rect x="-26" y="-10" width="52" height="14" rx="3" fill="#7a3220" stroke="#2b1f14" stroke-width="2"/><line x1="0" y1="-82.0" x2="0" y2="0" stroke="#a8492f" stroke-width="50" stroke-linecap="round"/><line x1="4" y1="-79.0" x2="4" y2="3" stroke="#7a3220" stroke-width="21.0" stroke-linecap="round" opacity="0.55"/><line x1="0" y1="-80" x2="-16" y2="68" stroke="#a8492f" stroke-width="24" stroke-linecap="round"/><line x1="4" y1="-77" x2="-12" y2="71" stroke="#7a3220" stroke-width="10.1" stroke-linecap="round" opacity="0.55"/><circle cx="-16" cy="68" r="12" fill="#dba06e" stroke="#2b1f14" stroke-width="2.5"/><line x1="0" y1="-80" x2="16" y2="68" stroke="#a8492f" stroke-width="24" stroke-linecap="round"/><line x1="4" y1="-77" x2="20" y2="71" stroke="#7a3220" stroke-width="10.1" stroke-linecap="round" opacity="0.55"/><circle cx="16" cy="68" r="12" fill="#dba06e" stroke="#2b1f14" stroke-width="2.5"/><circle cx="0" cy="-138" r="36" fill="#dba06e" stroke="#2b1f14" stroke-width="6"/><ellipse cx="0" cy="-157.8" rx="35.28" ry="21.599999999999998" fill="#c9601f" stroke="#2b1f14" stroke-width="3"/><circle cx="-11.52" cy="-135.12" r="3.6" fill="#2b1f14"/><circle cx="11.52" cy="-135.12" r="3.6" fill="#2b1f14"/></g><g transform="translate(514.9066664678467,591.0745575641057) scale(0.45,0.45) rotate(0)"><line x1="0" y1="0" x2="-30" y2="40" stroke="#c9b57a" stroke-width="32" stroke-linecap="round"/><line x1="4" y1="3" x2="-26" y2="43" stroke="#336240" stroke-width="13.4" stroke-linecap="round" opacity="0.55"/><ellipse cx="-30" cy="40" rx="15" ry="11" fill="#5e3b1f" stroke="#2b1f14" stroke-width="2"/><line x1="0" y1="0" x2="30" y2="40" stroke="#c9b57a" stroke-width="32" stroke-linecap="round"/><line x1="4" y1="3" x2="34" y2="43" stroke="#336240" stroke-width="13.4" stroke-linecap="round" opacity="0.55"/><ellipse cx="30" cy="40" rx="15" ry="11" fill="#5e3b1f" stroke="#2b1f14" stroke-width="2"/><rect x="-26" y="-10" width="52" height="14" rx="3" fill="#336240" stroke="#2b1f14" stroke-width="2"/><line x1="0" y1="-82.0" x2="0" y2="0" stroke="#4c8a5c" stroke-width="50" stroke-linecap="round"/><line x1="4" y1="-79.0" x2="4" y2="3" stroke="#336240" stroke-width="21.0" stroke-linecap="round" opacity="0.55"/><line x1="0" y1="-80" x2="-16" y2="68" stroke="#4c8a5c" stroke-width="24" stroke-linecap="round"/><line x1="4" y1="-77" x2="-12" y2="71" stroke="#336240" stroke-width="10.1" stroke-linecap="round" opacity="0.55"/><circle cx="-16" cy="68" r="12" fill="#e7c49a" stroke="#2b1f14" stroke-width="2.5"/><line x1="0" y1="-80" x2="16" y2="68" stroke="#4c8a5c" stroke-width="24" stroke-linecap="round"/><line x1="4" y1="-77" x2="20" y2="71" stroke="#336240" stroke-width="10.1" stroke-linecap="round" opacity="0.55"/><circle cx="16" cy="68" r="12" fill="#e7c49a" stroke="#2b1f14" stroke-width="2.5"/><circle cx="0" cy="-138" r="36" fill="#e7c49a" stroke="#2b1f14" stroke-width="6"/><ellipse cx="0" cy="-157.8" rx="35.28" ry="21.599999999999998" fill="#d8b64a" stroke="#2b1f14" stroke-width="3"/><circle cx="-11.52" cy="-135.12" r="3.6" fill="#2b1f14"/><circle cx="11.52" cy="-135.12" r="3.6" fill="#2b1f14"/></g><g transform="translate(540.9538931178863,635.3909064496551) scale(0.45,0.45) rotate(0)"><line x1="0" y1="0" x2="-30" y2="40" stroke="#4a3320" stroke-width="32" stroke-linecap="round"/><line x1="4" y1="3" x2="-26" y2="43" stroke="#294a27" stroke-width="13.4" stroke-linecap="round" opacity="0.55"/><ellipse cx="-30" cy="40" rx="15" ry="11" fill="#241d15" stroke="#2b1f14" stroke-width="2"/><line x1="0" y1="0" x2="30" y2="40" stroke="#4a3320" stroke-width="32" stroke-linecap="round"/><line x1="4" y1="3" x2="34" y2="43" stroke="#294a27" stroke-width="13.4" stroke-linecap="round" opacity="0.55"/><ellipse cx="30" cy="40" rx="15" ry="11" fill="#241d15" stroke="#2b1f14" stroke-width="2"/><rect x="-26" y="-10" width="52" height="14" rx="3" fill="#294a27" stroke="#2b1f14" stroke-width="2"/><line x1="0" y1="-82.0" x2="0" y2="0" stroke="#3f6b3c" stroke-width="50" stroke-linecap="round"/><line x1="4" y1="-79.0" x2="4" y2="3" stroke="#294a27" stroke-width="21.0" stroke-linecap="round" opacity="0.55"/><line x1="0" y1="-80" x2="-16" y2="68" stroke="#3f6b3c" stroke-width="24" stroke-linecap="round"/><line x1="4" y1="-77" x2="-12" y2="71" stroke="#294a27" stroke-width="10.1" stroke-linecap="round" opacity="0.55"/><circle cx="-16" cy="68" r="12" fill="#e0ac7c" stroke="#2b1f14" stroke-width="2.5"/><line x1="0" y1="-80" x2="16" y2="68" stroke="#3f6b3c" stroke-width="24" stroke-linecap="round"/><line x1="4" y1="-77" x2="20" y2="71" stroke="#294a27" stroke-width="10.1" stroke-linecap="round" opacity="0.55"/><circle cx="16" cy="68" r="12" fill="#e0ac7c" stroke="#2b1f14" stroke-width="2.5"/><circle cx="0" cy="-138" r="36" fill="#e0ac7c" stroke="#2b1f14" stroke-width="6"/><ellipse cx="0" cy="-157.8" rx="35.28" ry="21.599999999999998" fill="#241d15" stroke="#2b1f14" stroke-width="3"/><circle cx="-11.52" cy="-135.12" r="3.6" fill="#2b1f14"/><circle cx="11.52" cy="-135.12" r="3.6" fill="#2b1f14"/></g><g transform="translate(451.30302149885034,662.2861679353658) scale(0.45,0.45) rotate(0)"><line x1="0" y1="0" x2="-30" y2="40" stroke="#a8492f" stroke-width="32" stroke-linecap="round"/><line x1="4" y1="3" x2="-26" y2="43" stroke="#2b4d7a" stroke-width="13.4" stroke-linecap="round" opacity="0.55"/><ellipse cx="-30" cy="40" rx="15" ry="11" fill="#4a3320" stroke="#2b1f14" stroke-width="2"/><line x1="0" y1="0" x2="30" y2="40" stroke="#a8492f" stroke-width="32" stroke-linecap="round"/><line x1="4" y1="3" x2="34" y2="43" stroke="#2b4d7a" stroke-width="13.4" stroke-linecap="round" opacity="0.55"/><ellipse cx="30" cy="40" rx="15" ry="11" fill="#4a3320" stroke="#2b1f14" stroke-width="2"/><rect x="-26" y="-10" width="52" height="14" rx="3" fill="#2b4d7a" stroke="#2b1f14" stroke-width="2"/><line x1="0" y1="-82.0" x2="0" y2="0" stroke="#3f6fae" stroke-width="50" stroke-linecap="round"/><line x1="4" y1="-79.0" x2="4" y2="3" stroke="#2b4d7a" stroke-width="21.0" stroke-linecap="round" opacity="0.55"/><line x1="0" y1="-80" x2="-16" y2="68" stroke="#3f6fae" stroke-width="24" stroke-linecap="round"/><line x1="4" y1="-77" x2="-12" y2="71" stroke="#2b4d7a" stroke-width="10.1" stroke-linecap="round" opacity="0.55"/><circle cx="-16" cy="68" r="12" fill="#e0ac7c" stroke="#2b1f14" stroke-width="2.5"/><line x1="0" y1="-80" x2="16" y2="68" stroke="#3f6fae" stroke-width="24" stroke-linecap="round"/><line x1="4" y1="-77" x2="20" y2="71" stroke="#2b4d7a" stroke-width="10.1" stroke-linecap="round" opacity="0.55"/><circle cx="16" cy="68" r="12" fill="#e0ac7c" stroke="#2b1f14" stroke-width="2.5"/><circle cx="0" cy="-138" r="36" fill="#e0ac7c" stroke="#2b1f14" stroke-width="6"/><ellipse cx="0" cy="-157.8" rx="35.28" ry="21.599999999999998" fill="#e6e6e6" stroke="#2b1f14" stroke-width="3"/><circle cx="-11.52" cy="-135.12" r="3.6" fill="#2b1f14"/><circle cx="11.52" cy="-135.12" r="3.6" fill="#2b1f14"/></g><g transform="translate(303.5818585470191,654.471999940354) scale(0.45,0.45) rotate(0)"><line x1="0" y1="0" x2="-30" y2="40" stroke="#6b4a24" stroke-width="32" stroke-linecap="round"/><line x1="4" y1="3" x2="-26" y2="43" stroke="#3c5726" stroke-width="13.4" stroke-linecap="round" opacity="0.55"/><ellipse cx="-30" cy="40" rx="15" ry="11" fill="#3a2a1a" stroke="#2b1f14" stroke-width="2"/><line x1="0" y1="0" x2="30" y2="40" stroke="#6b4a24" stroke-width="32" stroke-linecap="round"/><line x1="4" y1="3" x2="34" y2="43" stroke="#3c5726" stroke-width="13.4" stroke-linecap="round" opacity="0.55"/><ellipse cx="30" cy="40" rx="15" ry="11" fill="#3a2a1a" stroke="#2b1f14" stroke-width="2"/><rect x="-26" y="-10" width="52" height="14" rx="3" fill="#3c5726" stroke="#2b1f14" stroke-width="2"/><line x1="0" y1="-82.0" x2="0" y2="0" stroke="#5a7d3a" stroke-width="50" stroke-linecap="round"/><line x1="4" y1="-79.0" x2="4" y2="3" stroke="#3c5726" stroke-width="21.0" stroke-linecap="round" opacity="0.55"/><line x1="0" y1="-80" x2="-16" y2="68" stroke="#5a7d3a" stroke-width="24" stroke-linecap="round"/><line x1="4" y1="-77" x2="-12" y2="71" stroke="#3c5726" stroke-width="10.1" stroke-linecap="round" opacity="0.55"/><circle cx="-16" cy="68" r="12" fill="#dba06e" stroke="#2b1f14" stroke-width="2.5"/><line x1="0" y1="-80" x2="16" y2="68" stroke="#5a7d3a" stroke-width="24" stroke-linecap="round"/><line x1="4" y1="-77" x2="20" y2="71" stroke="#3c5726" stroke-width="10.1" stroke-linecap="round" opacity="0.55"/><circle cx="16" cy="68" r="12" fill="#dba06e" stroke="#2b1f14" stroke-width="2.5"/><circle cx="0" cy="-138" r="36" fill="#dba06e" stroke="#2b1f14" stroke-width="6"/><ellipse cx="0" cy="-157.8" rx="35.28" ry="21.599999999999998" fill="#6b4a24" stroke="#2b1f14" stroke-width="3"/><circle cx="-11.52" cy="-135.12" r="3.6" fill="#2b1f14"/><circle cx="11.52" cy="-135.12" r="3.6" fill="#2b1f14"/></g><g transform="translate(400,600) scale(0.65,0.65) rotate(0)"><line x1="0" y1="0" x2="-24" y2="92" stroke="#6b6e73" stroke-width="32" stroke-linecap="round"/><line x1="4" y1="3" x2="-20" y2="95" stroke="#2b4d7a" stroke-width="13.4" stroke-linecap="round" opacity="0.55"/><ellipse cx="-24" cy="92" rx="15" ry="11" fill="#3a2a1a" stroke="#2b1f14" stroke-width="2"/><line x1="0" y1="0" x2="24" y2="92" stroke="#6b6e73" stroke-width="32" stroke-linecap="round"/><line x1="4" y1="3" x2="28" y2="95" stroke="#2b4d7a" stroke-width="13.4" stroke-linecap="round" opacity="0.55"/><ellipse cx="24" cy="92" rx="15" ry="11" fill="#3a2a1a" stroke="#2b1f14" stroke-width="2"/><rect x="-26" y="-10" width="52" height="14" rx="3" fill="#2b4d7a" stroke="#2b1f14" stroke-width="2"/><line x1="0" y1="-82.0" x2="0" y2="0" stroke="#3f6fae" stroke-width="50" stroke-linecap="round"/><line x1="4" y1="-79.0" x2="4" y2="3" stroke="#2b4d7a" stroke-width="21.0" stroke-linecap="round" opacity="0.55"/><line x1="0" y1="-80" x2="38" y2="-12" stroke="#3f6fae" stroke-width="24" stroke-linecap="round"/><line x1="4" y1="-77" x2="42" y2="-9" stroke="#2b4d7a" stroke-width="10.1" stroke-linecap="round" opacity="0.55"/><circle cx="38" cy="-12" r="12" fill="#e0ac7c" stroke="#2b1f14" stroke-width="2.5"/><line x1="0" y1="-80" x2="52" y2="6" stroke="#3f6fae" stroke-width="24" stroke-linecap="round"/><line x1="4" y1="-77" x2="56" y2="9" stroke="#2b4d7a" stroke-width="10.1" stroke-linecap="round" opacity="0.55"/><circle cx="52" cy="6" r="12" fill="#e0ac7c" stroke="#2b1f14" stroke-width="2.5"/><circle cx="0" cy="-138" r="36" fill="#e0ac7c" stroke="#2b1f14" stroke-width="6"/><ellipse cx="0" cy="-157.8" rx="35.28" ry="21.599999999999998" fill="#3a2a1a" stroke="#2b1f14" stroke-width="3"/><circle cx="-11.52" cy="-135.12" r="3.6" fill="#2b1f14"/><circle cx="11.52" cy="-135.12" r="3.6" fill="#2b1f14"/></g><g transform="translate(400,540) rotate(0) scale(0.5)"><circle cx="-42" cy="0" r="10" fill="#8a5a34" stroke="#2b1f14" stroke-width="5"/><circle cx="42" cy="0" r="10" fill="#8a5a34" stroke="#2b1f14" stroke-width="5"/><rect x="-42" y="-10" width="84" height="20" rx="10" fill="#ece0c0" stroke="#2b1f14" stroke-width="5"/><rect x="-4" y="-12" width="8" height="24" fill="#c98a2e"/></g></svg>