<svg xmlns="http://www.w3.org/2000/svg" viewBox="0 0 768 768"><rect x="0" y="0" width="768" height="768" fill="#f6ecd9"/><g transform="translate(220,640) scale(0.7,0.7) rotate(0)"><circle cx="0" cy="-129" r="30" fill="#f6ecd9" stroke="#241d15" stroke-width="7"/><line x1="0" y1="-77.0" x2="0" y2="0" stroke="#241d15" stroke-width="7" stroke-linecap="round"/><line x1="0" y1="-77" x2="-45" y2="-10" stroke="#241d15" stroke-width="7" stroke-linecap="round"/><line x1="0" y1="-77" x2="45" y2="-10" stroke="#241d15" stroke-width="7" stroke-linecap="round"/><line x1="0" y1="0" x2="-24" y2="92" stroke="#241d15" stroke-width="7" stroke-linecap="round"/><line x1="0" y1="0" x2="24" y2="92" stroke="#241d15" stroke-width="7" stroke-linecap="round"/></g><g transform="translate(300,460) scale(1.0)"><polygon points="44.0,0.0 29.3,12.1 31.1,31.1 12.1,29.3 0.0,44.0 -12.1,29.3 -31.1,31.1 -29.3,12.1 -44.0,0.0 -29.3,-12.1 -31.1,-31.1 -12.1,-29.3 -0.0,-44.0 12.1,-29.3 31.1,-31.1 29.3,-12.1" fill="#f6ecd9" stroke="#241d15" stroke-width="5" stroke-linejoin="round"/><circle cx="0" cy="0" r="14.08" fill="#f6ecd9" stroke="#241d15" stroke-width="5"/></g><g transform="translate(370,500) scale(1.0)"><polygon points="26.0,0.0 17.3,7.2 18.4,18.4 7.2,17.3 0.0,26.0 -7.2,17.3 -18.4,18.4 -17.3,7.2 -26.0,0.0 -17.3,-7.2 -18.4,-18.4 -7.2,-17.3 -0.0,-26.0 7.2,-17.3 18.4,-18.4 17.3,-7.2" fill="#f6ecd9" stroke="#241d15" stroke-width="5" stroke-linejoin="round"/><circle cx="0" cy="0" r="8.32" fill="#f6ecd9" stroke="#241d15" stroke-width="5"/></g><g transform="translate(560,640) scale(0.7,0.7) rotate(0)"><circle cx="0" cy="-129" r="30" fill="#f6ecd9" stroke="#241d15" stroke-width="7"/><line x1="0" y1="-77.0" x2="0" y2="0" stroke="#241d15" stroke-width="7" stroke-linecap="round"/><line x1="0" y1="-77" x2="-45" y2="-10" stroke="#241d15" stroke-width="7" stroke-linecap="round"/><line x1="0" y1="-77" x2="45" y2="-10" stroke="#241d15" stroke-width="7" stroke-linecap="round"/><line x1="0" y1="0" x2="-24" y2="92" stroke="#241d15" stroke-width="7" stroke-linecap="round"/><line x1="0" y1="0" x2="24" y2="92" stroke="#241d15" stroke-width="7" stroke-linecap="round"/></g><g transform="translate(460,600) scale(0.9)"><path d="M -30,10 Q -34,50 0,54 Q 34,50 30,10 Q 30,-14 0,-14 Q -30,-14 -30,10 Z" fill="#d9922f" stroke="#241d15" stroke-width="6" stroke-linejoin="round"/><path d="M -14,-14 Q 0,-30 14,-14" fill="none" stroke="#241d15" stroke-width="6" stroke-linecap="round"/><circle cx="0" cy="-16" r="6" fill="#241d15"/></g></svg>