<svg xmlns="http://www.w3.org/2000/svg" viewBox="0 0 768 768"><rect x="0" y="0" width="768" height="768" fill="#ece0c0"/><rect x="0" y="0" width="768" height="400" fill="#26355c"/><polygon points="289,400 479,400 768,748 0,748" fill="#5a9450"/><line x1="327.0" y1="400" x2="153.6" y2="748" stroke="#3c6b3a" stroke-width="2" opacity="0.4"/><line x1="365.0" y1="400" x2="307.2" y2="748" stroke="#3c6b3a" stroke-width="2" opacity="0.4"/><line x1="403.0" y1="400" x2="460.8" y2="748" stroke="#3c6b3a" stroke-width="2" opacity="0.4"/><line x1="441.0" y1="400" x2="614.4" y2="748" stroke="#3c6b3a" stroke-width="2" opacity="0.4"/><line x1="173.4" y1="539.2" x2="594.6" y2="539.2" stroke="#3c6b3a" stroke-width="2" opacity="0.4"/><line x1="86.7" y1="643.6" x2="681.3" y2="643.6" stroke="#3c6b3a" stroke-width="2" opacity="0.4"/><line x1="0" y1="400" x2="768" y2="400" stroke="#3c6b3a" stroke-width="3" opacity="0.55"/><path d="M 0,-24 A 24 24 0 1 0 0,24 A 18 18 0 1 1 0,-24 Z" fill="#f0e6c8" opacity="0.9" transform="translate(600,120)"/><g transform="translate(460,150) scale(0.4)"><polygon points="0,-20 5,-5 20,0 5,5 0,20 -5,5 -20,0 -5,-5" fill="#f0e6c8" opacity="0.8"/></g><g transform="translate(510,100) scale(0.4)"><polygon points="0,-20 5,-5 20,0 5,5 0,20 -5,5 -20,0 -5,-5" fill="#f0e6c8" opacity="0.8"/></g><g transform="translate(560,160) scale(0.4)"><polygon points="0,-20 5,-5 20,0 5,5 0,20 -5,5 -20,0 -5,-5" fill="#f0e6c8" opacity="0.8"/></g><g transform="translate(660,110) scale(0.4)"><polygon points="0,-20 5,-5 20,0 5,5 0,20 -5,5 -20,0 -5,-5" fill="#f0e6c8" opacity="0.8"/></g><g transform="translate(340,460) scale(1.2)"><path d="M -20,30 Q 0,44 20,30 L 24,40 Q 0,54 -24,40 Z" fill="#5e3b1f"/><circle cx="0" cy="0" r="38" fill="#4f9fc0" stroke="#2b1f14" stroke-width="6" opacity="0.9"/><circle cx="-12" cy="-14" r="8" fill="#ece0c0" stroke="#2b1f14" stroke-width="2" opacity="0.7"/></g><g transform="translate(400,380) scale(0.8)"><polygon points="0,-20 5,-5 20,0 5,5 0,20 -5,5 -20,0 -5,-5" fill="#e8b563" stroke="#2b1f14" stroke-width="3" stroke-linejoin="round"/></g><g transform="translate(220,640) scale(1.0,1.0) rotate(0)"><line x1="0" y1="0" x2="-24" y2="92" stroke="#5e4223" stroke-width="32" stroke-linecap="round"/><line x1="4" y1="3" x2="-20" y2="95" stroke="#334927" stroke-width="13.4" stroke-linecap="round" opacity="0.55"/><ellipse cx="-24" cy="92" rx="15" ry="11" fill="#3a2a1a" stroke="#2b1f14" stroke-width="2"/><line x1="0" y1="0" x2="24" y2="92" stroke="#5e4223" stroke-width="32" stroke-linecap="round"/><line x1="4" y1="3" x2="28" y2="95" stroke="#334927" stroke-width="13.4" stroke-linecap="round" opacity="0.55"/><ellipse cx="24" cy="92" rx="15" ry="11" fill="#3a2a1a" stroke="#2b1f14" stroke-width="2"/><rect x="-26" y="-10" width="52" height="14" rx="3" fill="#334927" stroke="#2b1f14" stroke-width="2"/><line x1="0" y1="-82.0" x2="0" y2="0" stroke="#4c6a3a" stroke-width="50" stroke-linecap="round"/><line x1="4" y1="-79.0" x2="4" y2="3" stroke="#334927" stroke-width="21.0" stroke-linecap="round" opacity="0.55"/><line x1="0" y1="-80" x2="-14" y2="62" stroke="#4c6a3a" stroke-width="24" stroke-linecap="round"/><line x1="4" y1="-77" x2="-10" y2="65" stroke="#334927" stroke-width="10.1" stroke-linecap="round" opacity="0.55"/><circle cx="-14" cy="62" r="12" fill="#dba06e" stroke="#2b1f14" stroke-width="2.5"/><line x1="0" y1="-80" x2="78" y2="-6" stroke="#4c6a3a" stroke-width="24" stroke-linecap="round"/><line x1="4" y1="-77" x2="82" y2="-3" stroke="#334927" stroke-width="10.1" stroke-linecap="round" opacity="0.55"/><circle cx="78" cy="-6" r="12" fill="#dba06e" stroke="#2b1f14" stroke-width="2.5"/><circle cx="0" cy="-138" r="36" fill="#dba06e" stroke="#2b1f14" stroke-width="6"/><ellipse cx="0" cy="-157.8" rx="35.28" ry="21.599999999999998" fill="#4a3320" stroke="#2b1f14" stroke-width="3"/><circle cx="-11.52" cy="-135.12" r="3.6" fill="#2b1f14"/><circle cx="11.52" cy="-135.12" r="3.6" fill="#2b1f14"/></g><g transform="translate(600,560) scale(0.6)"><path d="M -20,30 Q 0,44 20,30 L 24,40 Q 0,54 -24,40 Z" fill="#5e3b1f"/><circle cx="0" cy="0" r="38" fill="#4f9fc0" stroke="#2b1f14" stroke-width="6" opacity="0.9"/><circle cx="-12" cy="-14" r="8" fill="#ece0c0" stroke="#2b1f14" stroke-width="2" opacity="0.7"/></g><g transform="translate(650,500) scale(1.0)"><polyline points="-14,0 -2.8000000000000003,11.200000000000001 14,-11.200000000000001" fill="none" stroke="#c98a2e" stroke-width="7" stroke-linecap="round" stroke-linejoin="round"/></g></svg>