<svg xmlns="http://www.w3.org/2000/svg" viewBox="0 0 768 768"><rect x="0" y="0" width="768" height="768" fill="#ece0c0"/><rect x="0" y="0" width="768" height="400" fill="#7ec8e3"/><rect x="0" y="372" width="768" height="28" fill="#dbead9" opacity="0.65"/><polygon points="289,400 479,400 768,748 0,748" fill="#5a9450"/><line x1="327.0" y1="400" x2="153.6" y2="748" stroke="#3c6b3a" stroke-width="2" opacity="0.4"/><line x1="365.0" y1="400" x2="307.2" y2="748" stroke="#3c6b3a" stroke-width="2" opacity="0.4"/><line x1="403.0" y1="400" x2="460.8" y2="748" stroke="#3c6b3a" stroke-width="2" opacity="0.4"/><line x1="441.0" y1="400" x2="614.4" y2="748" stroke="#3c6b3a" stroke-width="2" opacity="0.4"/><line x1="173.4" y1="539.2" x2="594.6" y2="539.2" stroke="#3c6b3a" stroke-width="2" opacity="0.4"/><line x1="86.7" y1="643.6" x2="681.3" y2="643.6" stroke="#3c6b3a" stroke-width="2" opacity="0.4"/><line x1="0" y1="400" x2="768" y2="400" stroke="#3c6b3a" stroke-width="3" opacity="0.55"/><path d="M 300,410 Q 340,604.0 260,748" fill="none" stroke="#356f8a" stroke-width="60" opacity="0.5"/><path d="M 300,410 Q 340,604.0 260,748" fill="none" stroke="#4f9fc0" stroke-width="42" opacity="0.8"/><g transform="translate(60,744) scale(1.0)"><path d="M 0,0 Q 6,-30 -4,-56" fill="none" stroke="#3c6b3a" stroke-width="4"/><path d="M 10,0 Q 16,-30 6,-56" fill="none" stroke="#3c6b3a" stroke-width="4"/><path d="M 20,0 Q 26,-30 16,-56" fill="none" stroke="#3c6b3a" stroke-width="4"/></g><g transform="translate(700,744) scale(0.8)"><path d="M 0,0 Q 6,-30 -4,-56" fill="none" stroke="#3c6b3a" stroke-width="4"/><path d="M 10,0 Q 16,-30 6,-56" fill="none" stroke="#3c6b3a" stroke-width="4"/><path d="M 20,0 Q 26,-30 16,-56" fill="none" stroke="#3c6b3a" stroke-width="4"/></g><g transform="translate(230,620) scale(1.0,1.0) rotate(0)"><line x1="0" y1="0" x2="-24" y2="92" stroke="#4a3320" stroke-width="32" stroke-linecap="round"/><line x1="4" y1="3" x2="-20" y2="95" stroke="#77293f" stroke-width="13.4" stroke-linecap="round" opacity="0.55"/><ellipse cx="-24" cy="92" rx="15" ry="11" fill="#3a2a1a" stroke="#2b1f14" stroke-width="2"/><line x1="0" y1="0" x2="24" y2="92" stroke="#4a3320" stroke-width="32" stroke-linecap="round"/><line x1="4" y1="3" x2="28" y2="95" stroke="#77293f" stroke-width="13.4" stroke-linecap="round" opacity="0.55"/><ellipse cx="24" cy="92" rx="15" ry="11" fill="#3a2a1a" stroke="#2b1f14" stroke-width="2"/><rect x="-26" y="-10" width="52" height="14" rx="3" fill="#77293f" stroke="#2b1f14" stroke-width="2"/><line x1="0" y1="-82.0" x2="0" y2="0" stroke="#a63f5c" stroke-width="50" stroke-linecap="round"/><line x1="4" y1="-79.0" x2="4" y2="3" stroke="#77293f" stroke-width="21.0" stroke-linecap="round" opacity="0.55"/><line x1="0" y1="-80" x2="38" y2="-12" stroke="#a63f5c" stroke-width="24" stroke-linecap="round"/><line x1="4" y1="-77" x2="42" y2="-9" stroke="#77293f" stroke-width="10.1" stroke-linecap="round" opacity="0.55"/><circle cx="38" cy="-12" r="12" fill="#e0ac7c" stroke="#2b1f14" stroke-width="2.5"/><line x1="0" y1="-80" x2="52" y2="6" stroke="#a63f5c" stroke-width="24" stroke-linecap="round"/><line x1="4" y1="-77" x2="56" y2="9" stroke="#77293f" stroke-width="10.1" stroke-linecap="round" opacity="0.55"/><circle cx="52" cy="6" r="12" fill="#e0ac7c" stroke="#2b1f14" stroke-width="2.5"/><circle cx="0" cy="-138" r="36" fill="#e0ac7c" stroke="#2b1f14" stroke-width="6"/><ellipse cx="0" cy="-157.8" rx="35.28" ry="21.599999999999998" fill="#7a3c1d" stroke="#2b1f14" stroke-width="3"/><circle cx="-11.52" cy="-135.12" r="3.6" fill="#2b1f14"/><circle cx="11.52" cy="-135.12" r="3.6" fill="#2b1f14"/></g><g transform="translate(410,580) scale(1.0)"><rect x="-14" y="-46" width="28" height="46" rx="14" fill="#a8a196" stroke="#2b1f14" stroke-width="6"/><path d="M -24,-10 Q -24,20 0,20 Q 24,20 24,-10" fill="none" stroke="#2b1f14" stroke-width="6"/><line x1="0" y1="20" x2="0" y2="46" stroke="#2b1f14" stroke-width="6"/><line x1="-18" y1="46" x2="18" y2="46" stroke="#2b1f14" stroke-width="6" stroke-linecap="round"/></g><g transform="translate(410,630)"><rect x="-50.0" y="0" width="100" height="6" fill="#5e3b1f"/><line x1="-40.0" y1="6" x2="-40.0" y2="56" stroke="#5e3b1f" stroke-width="6" stroke-linecap="round"/><line x1="40.0" y1="6" x2="40.0" y2="56" stroke="#5e3b1f" stroke-width="6" stroke-linecap="round"/></g><g transform="translate(600,640) scale(1.0)"><path d="M -110.0,0 Q -55.0,14 0,0 Q 55.0,-14 110.0,0" fill="none" stroke="#356f8a" stroke-width="5"/><path d="M -110.0,18 Q -55.0,32 0,18 Q 55.0,4 110.0,18" fill="none" stroke="#4f9fc0" stroke-width="4"/></g><g transform="translate(600,480) scale(0.7)"><path d="M -60,10 Q -70,-30 -30,-30 Q -20,-56 20,-46 Q 60,-50 60,-14 Q 80,-10 70,16 L -60,16 Q -76,14 -60,10 Z" fill="#e8eef2" stroke="#2b1f14" stroke-width="6" stroke-linejoin="round"/><polygon points="0,20 -14,50 0,46 -10,80 24,40 8,44 18,20" fill="#c98a2e" stroke="#2b1f14" stroke-width="3" stroke-linejoin="round"/></g><g transform="translate(410,500) scale(1.0)"><polyline points="-18,0 -3.6,14.4 18,-14.4" fill="none" stroke="#c98a2e" stroke-width="7" stroke-linecap="round" stroke-linejoin="round"/></g></svg>