<svg xmlns="http://www.w3.org/2000/svg" viewBox="0 0 768 768"><rect x="0" y="0" width="768" height="768" fill="#ece0c0"/><rect x="0" y="0" width="768" height="400" fill="#87837a"/><polygon points="289,400 479,400 768,748 0,748" fill="#a8a196"/><line x1="327.0" y1="400" x2="153.6" y2="748" stroke="#7a7468" stroke-width="2" opacity="0.4"/><line x1="365.0" y1="400" x2="307.2" y2="748" stroke="#7a7468" stroke-width="2" opacity="0.4"/><line x1="403.0" y1="400" x2="460.8" y2="748" stroke="#7a7468" stroke-width="2" opacity="0.4"/><line x1="441.0" y1="400" x2="614.4" y2="748" stroke="#7a7468" stroke-width="2" opacity="0.4"/><line x1="173.4" y1="539.2" x2="594.6" y2="539.2" stroke="#7a7468" stroke-width="2" opacity="0.4"/><line x1="86.7" y1="643.6" x2="681.3" y2="643.6" stroke="#7a7468" stroke-width="2" opacity="0.4"/><line x1="0" y1="400" x2="768" y2="400" stroke="#7a7468" stroke-width="3" opacity="0.55"/><path d="M 65.0,280 L 65.0,60 Q 65.0,-50.0 110,-50.0 Q 155.0,-50.0 155.0,60 L 155.0,280" fill="none" stroke="#87837a" stroke-width="10" opacity="0.7"/><path d="M 613.0,280 L 613.0,60 Q 613.0,-50.0 658,-50.0 Q 703.0,-50.0 703.0,60 L 703.0,280" fill="none" stroke="#87837a" stroke-width="10" opacity="0.7"/><g transform="translate(190,640) scale(1.0,1.0) rotate(0)"><line x1="0" y1="0" x2="-24" y2="92" stroke="#a8492f" stroke-width="32" stroke-linecap="round"/><line x1="4" y1="3" x2="-20" y2="95" stroke="#2b4d7a" stroke-width="13.4" stroke-linecap="round" opacity="0.55"/><ellipse cx="-24" cy="92" rx="15" ry="11" fill="#4a3320" stroke="#2b1f14" stroke-width="2"/><line x1="0" y1="0" x2="24" y2="92" stroke="#a8492f" stroke-width="32" stroke-linecap="round"/><line x1="4" y1="3" x2="28" y2="95" stroke="#2b4d7a" stroke-width="13.4" stroke-linecap="round" opacity="0.55"/><ellipse cx="24" cy="92" rx="15" ry="11" fill="#4a3320" stroke="#2b1f14" stroke-width="2"/><rect x="-26" y="-10" width="52" height="14" rx="3" fill="#2b4d7a" stroke="#2b1f14" stroke-width="2"/><line x1="0" y1="-82.0" x2="0" y2="0" stroke="#3f6fae" stroke-width="50" stroke-linecap="round"/><line x1="4" y1="-79.0" x2="4" y2="3" stroke="#2b4d7a" stroke-width="21.0" stroke-linecap="round" opacity="0.55"/><line x1="0" y1="-80" x2="-14" y2="62" stroke="#3f6fae" stroke-width="24" stroke-linecap="round"/><line x1="4" y1="-77" x2="-10" y2="65" stroke="#2b4d7a" stroke-width="10.1" stroke-linecap="round" opacity="0.55"/><circle cx="-14" cy="62" r="12" fill="#e0ac7c" stroke="#2b1f14" stroke-width="2.5"/><line x1="0" y1="-80" x2="78" y2="-6" stroke="#3f6fae" stroke-width="24" stroke-linecap="round"/><line x1="4" y1="-77" x2="82" y2="-3" stroke="#2b4d7a" stroke-width="10.1" stroke-linecap="round" opacity="0.55"/><circle cx="78" cy="-6" r="12" fill="#e0ac7c" stroke="#2b1f14" stroke-width="2.5"/><circle cx="0" cy="-138" r="36" fill="#e0ac7c" stroke="#2b1f14" stroke-width="6"/><ellipse cx="0" cy="-157.8" rx="35.28" ry="21.599999999999998" fill="#e6e6e6" stroke="#2b1f14" stroke-width="3"/><circle cx="-11.52" cy="-135.12" r="3.6" fill="#2b1f14"/><circle cx="11.52" cy="-135.12" r="3.6" fill="#2b1f14"/></g><g transform="translate(340,500) scale(1.0)"><rect x="0" y="0" width="36" height="36" fill="#ece0c0" stroke="#2b1f14" stroke-width="4"/><rect x="46" y="0" width="36" height="36" fill="#ece0c0" stroke="#2b1f14" stroke-width="4"/><rect x="92" y="0" width="36" height="36" fill="#ece0c0" stroke="#2b1f14" stroke-width="4"/><rect x="138" y="0" width="36" height="36" fill="#ece0c0" stroke="#2b1f14" stroke-width="4"/><rect x="0" y="46" width="36" height="36" fill="#ece0c0" stroke="#2b1f14" stroke-width="4"/><rect x="46" y="46" width="36" height="36" fill="#ece0c0" stroke="#2b1f14" stroke-width="4"/><rect x="92" y="46" width="36" height="36" fill="#ece0c0" stroke="#2b1f14" stroke-width="4"/><rect x="138" y="46" width="36" height="36" fill="#ece0c0" stroke="#2b1f14" stroke-width="4"/></g><g transform="translate(358,518) rotate(0) scale(0.4)"><rect x="-32" y="-22" width="64" height="44" fill="#ece0c0" stroke="#2b1f14" stroke-width="5"/><path d="M -32,-22 L 0,4 L 32,-22" fill="none" stroke="#2b1f14" stroke-width="5" stroke-linejoin="round"/><circle cx="0" cy="-4" r="6" fill="#c98a2e"/></g><g transform="translate(404,518) rotate(0) scale(0.4)"><rect x="-32" y="-22" width="64" height="44" fill="#ece0c0" stroke="#2b1f14" stroke-width="5"/><path d="M -32,-22 L 0,4 L 32,-22" fill="none" stroke="#2b1f14" stroke-width="5" stroke-linejoin="round"/><circle cx="0" cy="-4" r="6" fill="#c98a2e"/></g><g transform="translate(450,518) rotate(0) scale(0.4)"><rect x="-32" y="-22" width="64" height="44" fill="#ece0c0" stroke="#2b1f14" stroke-width="5"/><path d="M -32,-22 L 0,4 L 32,-22" fill="none" stroke="#2b1f14" stroke-width="5" stroke-linejoin="round"/><circle cx="0" cy="-4" r="6" fill="#c98a2e"/></g><g transform="translate(496,518) rotate(0) scale(0.4)"><rect x="-32" y="-22" width="64" height="44" fill="#ece0c0" stroke="#2b1f14" stroke-width="5"/><path d="M -32,-22 L 0,4 L 32,-22" fill="none" stroke="#2b1f14" stroke-width="5" stroke-linejoin="round"/><circle cx="0" cy="-4" r="6" fill="#c98a2e"/></g><g transform="translate(358,564) rotate(0) scale(0.4)"><rect x="-32" y="-22" width="64" height="44" fill="#ece0c0" stroke="#2b1f14" stroke-width="5"/><path d="M -32,-22 L 0,4 L 32,-22" fill="none" stroke="#2b1f14" stroke-width="5" stroke-linejoin="round"/><circle cx="0" cy="-4" r="6" fill="#c98a2e"/></g><g transform="translate(404,564) rotate(0) scale(0.4)"><rect x="-32" y="-22" width="64" height="44" fill="#ece0c0" stroke="#2b1f14" stroke-width="5"/><path d="M -32,-22 L 0,4 L 32,-22" fill="none" stroke="#2b1f14" stroke-width="5" stroke-linejoin="round"/><circle cx="0" cy="-4" r="6" fill="#c98a2e"/></g><g transform="translate(450,564) rotate(0) scale(0.4)"><rect x="-32" y="-22" width="64" height="44" fill="#ece0c0" stroke="#2b1f14" stroke-width="5"/><path d="M -32,-22 L 0,4 L 32,-22" fill="none" stroke="#2b1f14" stroke-width="5" stroke-linejoin="round"/><circle cx="0" cy="-4" r="6" fill="#c98a2e"/></g><g transform="translate(496,564) rotate(0) scale(0.4)"><rect x="-32" y="-22" width="64" height="44" fill="#ece0c0" stroke="#2b1f14" stroke-width="5"/><path d="M -32,-22 L 0,4 L 32,-22" fill="none" stroke="#2b1f14" stroke-width="5" stroke-linejoin="round"/><circle cx="0" cy="-4" r="6" fill="#c98a2e"/></g><g transform="translate(650,460) scale(1.0)"><circle cx="0" cy="0" r="50" fill="#ece0c0" stroke="#2b1f14" stroke-width="6"/><line x1="41.0" y1="0.0" x2="47.5" y2="0.0" stroke="#2b1f14" stroke-width="3"/><line x1="35.50704155516199" y1="20.499999999999996" x2="41.13620667976084" y2="23.749999999999996" stroke="#2b1f14" stroke-width="3"/><line x1="20.500000000000004" y1="35.50704155516198" x2="23.750000000000004" y2="41.13620667976083" stroke="#2b1f14" stroke-width="3"/><line x1="2.510525938252074e-15" y1="41.0" x2="2.9085361479749637e-15" y2="47.5" stroke="#2b1f14" stroke-width="3"/><line x1="-20.49999999999999" y1="35.50704155516199" x2="-23.74999999999999" y2="41.13620667976084" stroke="#2b1f14" stroke-width="3"/><line x1="-35.50704155516199" y1="20.499999999999996" x2="-41.13620667976084" y2="23.749999999999996" stroke="#2b1f14" stroke-width="3"/><line x1="-41.0" y1="5.021051876504148e-15" x2="-47.5" y2="5.8170722959499274e-15" stroke="#2b1f14" stroke-width="3"/><line x1="-35.50704155516198" y1="-20.500000000000004" x2="-41.13620667976083" y2="-23.750000000000004" stroke="#2b1f14" stroke-width="3"/><line x1="-20.500000000000018" y1="-35.507041555161976" x2="-23.75000000000002" y2="-41.136206679760825" stroke="#2b1f14" stroke-width="3"/><line x1="-7.531577814756221e-15" y1="-41.0" x2="-8.72560844392489e-15" y2="-47.5" stroke="#2b1f14" stroke-width="3"/><line x1="20.500000000000004" y1="-35.50704155516198" x2="23.750000000000004" y2="-41.13620667976083" stroke="#2b1f14" stroke-width="3"/><line x1="35.507041555161976" y1="-20.500000000000018" x2="41.136206679760825" y2="-23.75000000000002" stroke="#2b1f14" stroke-width="3"/><line x1="0" y1="0" x2="0" y2="-25.0" stroke="#2b1f14" stroke-width="5" stroke-linecap="round"/><line x1="0" y1="0" x2="35.0" y2="0" stroke="#2b1f14" stroke-width="4" stroke-linecap="round"/></g></svg>