<svg xmlns="http://www.w3.org/2000/svg" viewBox="0 0 768 768"><rect x="0" y="0" width="768" height="768" fill="#ece0c0"/><rect x="0" y="0" width="768" height="400" fill="#7ec8e3"/><rect x="0" y="372" width="768" height="28" fill="#dbead9" opacity="0.65"/><polygon points="289,400 479,400 768,748 0,748" fill="#5a9450"/><line x1="327.0" y1="400" x2="153.6" y2="748" stroke="#3c6b3a" stroke-width="2" opacity="0.4"/><line x1="365.0" y1="400" x2="307.2" y2="748" stroke="#3c6b3a" stroke-width="2" opacity="0.4"/><line x1="403.0" y1="400" x2="460.8" y2="748" stroke="#3c6b3a" stroke-width="2" opacity="0.4"/><line x1="441.0" y1="400" x2="614.4" y2="748" stroke="#3c6b3a" stroke-width="2" opacity="0.4"/><line x1="173.4" y1="539.2" x2="594.6" y2="539.2" stroke="#3c6b3a" stroke-width="2" opacity="0.4"/><line x1="86.7" y1="643.6" x2="681.3" y2="643.6" stroke="#3c6b3a" stroke-width="2" opacity="0.4"/><line x1="0" y1="400" x2="768" y2="400" stroke="#3c6b3a" stroke-width="3" opacity="0.55"/><path d="M 20.0,400 Q 85.0,330 150,330 Q 215.0,330 280.0,400 Z" fill="#3c6b3a" opacity="0.55"/><path d="M 470.0,400 Q 545.0,310 620,310 Q 695.0,310 770.0,400 Z" fill="#3c6b3a" opacity="0.55"/><g transform="translate(120,744) scale(1.1)"><rect x="-6" y="-16" width="12" height="20" fill="#5e3b1f"/><polygon points="-26,-14 26,-14 0,-48" fill="#5a9450" stroke="#2b1f14" stroke-width="2"/><polygon points="-21,-36 21,-36 0,-70" fill="#3c6b3a" stroke="#2b1f14" stroke-width="2"/><polygon points="-16,-58 16,-58 0,-92" fill="#5a9450" stroke="#2b1f14" stroke-width="2"/></g><g transform="translate(690,744) scale(0.9)"><rect x="-6" y="-16" width="12" height="20" fill="#5e3b1f"/><polygon points="-26,-14 26,-14 0,-48" fill="#5a9450" stroke="#2b1f14" stroke-width="2"/><polygon points="-21,-36 21,-36 0,-70" fill="#3c6b3a" stroke="#2b1f14" stroke-width="2"/><polygon points="-16,-58 16,-58 0,-92" fill="#5a9450" stroke="#2b1f14" stroke-width="2"/></g><g transform="translate(70,460) scale(0.55)"><rect x="-6" y="-16" width="12" height="20" fill="#5e3b1f"/><polygon points="-26,-14 26,-14 0,-48" fill="#5a9450" stroke="#2b1f14" stroke-width="2"/><polygon points="-21,-36 21,-36 0,-70" fill="#3c6b3a" stroke="#2b1f14" stroke-width="2"/><polygon points="-16,-58 16,-58 0,-92" fill="#5a9450" stroke="#2b1f14" stroke-width="2"/></g><g transform="translate(400,660) scale(0.01)"><line x1="-30.0" y1="8.4" x2="-30.0" y2="58.4" stroke="#5e3b1f" stroke-width="6" stroke-linecap="round"/><line x1="30.0" y1="8.4" x2="30.0" y2="58.4" stroke="#5e3b1f" stroke-width="6" stroke-linecap="round"/><ellipse cx="0" cy="0" rx="60" ry="21.599999999999998" fill="#8a5a34" stroke="#2b1f14" stroke-width="6"/></g><g transform="translate(400,620) scale(0.9)"><path d="M -30,10 Q -34,50 0,54 Q 34,50 30,10 Q 30,-14 0,-14 Q -30,-14 -30,10 Z" fill="#e8b563" stroke="#2b1f14" stroke-width="6" stroke-linejoin="round"/><path d="M -14,-14 Q 0,-30 14,-14" fill="none" stroke="#5e3b1f" stroke-width="6" stroke-linecap="round"/><circle cx="0" cy="-16" r="6" fill="#5e3b1f"/></g><circle cx="400" cy="500" r="120" fill="#e8b563" opacity="0.15"/></svg>