<svg xmlns="http://www.w3.org/2000/svg" viewBox="0 0 768 768"><rect x="0" y="0" width="768" height="768" fill="#ece0c0"/><rect x="0" y="0" width="768" height="400" fill="#6b4527"/><polygon points="289,400 479,400 768,748 0,748" fill="#8a5a34"/><line x1="327.0" y1="400" x2="153.6" y2="748" stroke="#5e3b1f" stroke-width="2" opacity="0.4"/><line x1="365.0" y1="400" x2="307.2" y2="748" stroke="#5e3b1f" stroke-width="2" opacity="0.4"/><line x1="403.0" y1="400" x2="460.8" y2="748" stroke="#5e3b1f" stroke-width="2" opacity="0.4"/><line x1="441.0" y1="400" x2="614.4" y2="748" stroke="#5e3b1f" stroke-width="2" opacity="0.4"/><line x1="173.4" y1="539.2" x2="594.6" y2="539.2" stroke="#5e3b1f" stroke-width="2" opacity="0.4"/><line x1="86.7" y1="643.6" x2="681.3" y2="643.6" stroke="#5e3b1f" stroke-width="2" opacity="0.4"/><line x1="0" y1="400" x2="768" y2="400" stroke="#5e3b1f" stroke-width="3" opacity="0.55"/><line x1="20" y1="112.00000000000001" x2="748" y2="112.00000000000001" stroke="#5e3b1f" stroke-width="14" opacity="0.7"/><line x1="140" y1="112.00000000000001" x2="140" y2="412.0" stroke="#5e3b1f" stroke-width="10" opacity="0.4"/><line x1="384" y1="112.00000000000001" x2="384" y2="412.0" stroke="#5e3b1f" stroke-width="10" opacity="0.4"/><line x1="630" y1="112.00000000000001" x2="630" y2="412.0" stroke="#5e3b1f" stroke-width="10" opacity="0.4"/><g transform="translate(400,640) scale(1.0)"><line x1="-60.0" y1="16.8" x2="-60.0" y2="66.8" stroke="#5e3b1f" stroke-width="6" stroke-linecap="round"/><line x1="60.0" y1="16.8" x2="60.0" y2="66.8" stroke="#5e3b1f" stroke-width="6" stroke-linecap="round"/><ellipse cx="0" cy="0" rx="120" ry="43.199999999999996" fill="#8a5a34" stroke="#2b1f14" stroke-width="6"/></g><g transform="translate(300,660) scale(0.8,0.8) rotate(0)"><line x1="0" y1="0" x2="-24" y2="92" stroke="#4a3320" stroke-width="32" stroke-linecap="round"/><line x1="4" y1="3" x2="-20" y2="95" stroke="#77293f" stroke-width="13.4" stroke-linecap="round" opacity="0.55"/><ellipse cx="-24" cy="92" rx="15" ry="11" fill="#3a2a1a" stroke="#2b1f14" stroke-width="2"/><line x1="0" y1="0" x2="24" y2="92" stroke="#4a3320" stroke-width="32" stroke-linecap="round"/><line x1="4" y1="3" x2="28" y2="95" stroke="#77293f" stroke-width="13.4" stroke-linecap="round" opacity="0.55"/><ellipse cx="24" cy="92" rx="15" ry="11" fill="#3a2a1a" stroke="#2b1f14" stroke-width="2"/><rect x="-26" y="-10" width="52" height="14" rx="3" fill="#77293f" stroke="#2b1f14" stroke-width="2"/><line x1="0" y1="-82.0" x2="0" y2="0" stroke="#a63f5c" stroke-width="50" stroke-linecap="round"/><line x1="4" y1="-79.0" x2="4" y2="3" stroke="#77293f" stroke-width="21.0" stroke-linecap="round" opacity="0.55"/><line x1="0" y1="-80" x2="34" y2="-6" stroke="#a63f5c" stroke-width="24" stroke-linecap="round"/><line x1="4" y1="-77" x2="38" y2="-3" stroke="#77293f" stroke-width="10.1" stroke-linecap="round" opacity="0.55"/><circle cx="34" cy="-6" r="12" fill="#e0ac7c" stroke="#2b1f14" stroke-width="2.5"/><line x1="0" y1="-80" x2="34" y2="-6" stroke="#a63f5c" stroke-width="24" stroke-linecap="round"/><line x1="4" y1="-77" x2="38" y2="-3" stroke="#77293f" stroke-width="10.1" stroke-linecap="round" opacity="0.55"/><circle cx="34" cy="-6" r="12" fill="#e0ac7c" stroke="#2b1f14" stroke-width="2.5"/><circle cx="0" cy="-138" r="36" fill="#e0ac7c" stroke="#2b1f14" stroke-width="6"/><ellipse cx="0" cy="-157.8" rx="35.28" ry="21.599999999999998" fill="#7a3c1d" stroke="#2b1f14" stroke-width="3"/><circle cx="-11.52" cy="-135.12" r="3.6" fill="#2b1f14"/><circle cx="11.52" cy="-135.12" r="3.6" fill="#2b1f14"/></g><g transform="translate(500,660) scale(0.8,0.8) rotate(0)"><line x1="0" y1="0" x2="-24" y2="92" stroke="#4a3269" stroke-width="32" stroke-linecap="round"/><line x1="4" y1="3" x2="-20" y2="95" stroke="#4a3269" stroke-width="13.4" stroke-linecap="round" opacity="0.55"/><ellipse cx="-24" cy="92" rx="15" ry="11" fill="#3a2a1a" stroke="#2b1f14" stroke-width="2"/><line x1="0" y1="0" x2="24" y2="92" stroke="#4a3269" stroke-width="32" stroke-linecap="round"/><line x1="4" y1="3" x2="28" y2="95" stroke="#4a3269" stroke-width="13.4" stroke-linecap="round" opacity="0.55"/><ellipse cx="24" cy="92" rx="15" ry="11" fill="#3a2a1a" stroke="#2b1f14" stroke-width="2"/><rect x="-26" y="-10" width="52" height="14" rx="3" fill="#4a3269" stroke="#2b1f14" stroke-width="2"/><line x1="0" y1="-82.0" x2="0" y2="0" stroke="#6b4c9a" stroke-width="50" stroke-linecap="round"/><line x1="4" y1="-79.0" x2="4" y2="3" stroke="#4a3269" stroke-width="21.0" stroke-linecap="round" opacity="0.55"/><line x1="0" y1="-80" x2="34" y2="-6" stroke="#6b4c9a" stroke-width="24" stroke-linecap="round"/><line x1="4" y1="-77" x2="38" y2="-3" stroke="#4a3269" stroke-width="10.1" stroke-linecap="round" opacity="0.55"/><circle cx="34" cy="-6" r="12" fill="#e0ac7c" stroke="#2b1f14" stroke-width="2.5"/><line x1="0" y1="-80" x2="34" y2="-6" stroke="#6b4c9a" stroke-width="24" stroke-linecap="round"/><line x1="4" y1="-77" x2="38" y2="-3" stroke="#4a3269" stroke-width="10.1" stroke-linecap="round" opacity="0.55"/><circle cx="34" cy="-6" r="12" fill="#e0ac7c" stroke="#2b1f14" stroke-width="2.5"/><circle cx="0" cy="-138" r="36" fill="#e0ac7c" stroke="#2b1f14" stroke-width="6"/><ellipse cx="0" cy="-157.8" rx="35.28" ry="21.599999999999998" fill="#b9b9b9" stroke="#2b1f14" stroke-width="3"/><circle cx="-11.52" cy="-135.12" r="3.6" fill="#2b1f14"/><circle cx="11.52" cy="-135.12" r="3.6" fill="#2b1f14"/></g><g transform="translate(500,491.4) scale(0.9) rotate(-8)"><polygon points="-30,4 30,4 5,-76 -5,-76" fill="#6b4c9a" stroke="#2b1f14" stroke-width="3"/><ellipse cx="0" cy="4" rx="34" ry="8" fill="#4a3269" stroke="#2b1f14" stroke-width="3"/><circle cx="-2" cy="-62" r="7" fill="#c98a2e" stroke="#2b1f14" stroke-width="2"/></g></svg>